ply
format ascii 1.0
element vertex 1677
property float x
property float y
property float z
element face 3181
property list uchar int vertex_indices
end_header
-0.775000 0.056250 -0.175000
-0.775000 0.062500 0.175000
-0.775000 0.075000 -0.200000
-0.775000 0.075000 -0.137500
-0.775000 0.075000 0.156250
-0.775000 0.075000 0.200000
-0.775000 0.079167 -0.125000
-0.775000 0.079167 0.075000
-0.775000 0.088889 0.025000
-0.775000 0.090000 -0.225000
-0.775000 0.095833 -0.025000
-0.775000 0.100000 0.125000
-0.775000 0.125000 -0.260000
-0.775000 0.125000 0.212500
-0.775000 0.150000 0.225000
-0.775000 0.175000 -0.240000
-0.775000 0.175000 0.233333
-0.775000 0.225000 -0.240000
-0.775000 0.225000 0.230000
-0.775000 0.243750 -0.225000
-0.775000 0.275000 0.229167
-0.775000 0.293750 -0.175000
-0.775000 0.300000 0.225000
-0.775000 0.318750 -0.125000
-0.775000 0.325000 -0.100000
-0.775000 0.325000 0.218750
-0.775000 0.329167 -0.075000
-0.775000 0.350000 -0.025000
-0.775000 0.368750 0.175000
-0.775000 0.375000 0.016667
-0.775000 0.375000 0.166667
-0.775000 0.383333 0.025000
-0.775000 0.395833 0.125000
-0.775000 0.404167 0.075000
-0.771429 0.325000 0.225000
-0.762500 0.075000 -0.225000
-0.762500 0.075000 0.225000
-0.762500 0.125000 -0.275000
-0.759375 0.275000 -0.225000
-0.757143 0.125000 0.275000
-0.757143 0.325000 -0.175000
-0.757143 0.425000 0.025000
-0.754167 0.075000 0.275000
-0.753125 0.225000 -0.275000
-0.753125 0.425000 0.125000
-0.750000 0.325000 -0.225000
-0.750000 0.375000 -0.025000
-0.746875 0.225000 0.275000
-0.746875 0.425000 -0.025000
-0.740625 0.425000 -0.075000
-0.740000 0.025000 -0.225000
-0.738889 0.325000 -0.275000
-0.738889 0.325000 0.275000
-0.735714 0.025000 -0.275000
-0.735714 0.025000 0.225000
-0.735714 0.375000 -0.125000
-0.735714 0.375000 -0.075000
-0.734375 0.175000 0.325000
-0.733333 0.075000 -0.325000
-0.733333 0.125000 -0.325000
-0.733333 0.425000 0.225000
-0.733333 0.475000 -0.075000
-0.733333 0.475000 -0.025000
-0.730000 0.025000 0.175000
-0.728571 0.025000 0.275000
-0.728125 0.225000 0.325000
-0.728125 0.425000 -0.125000
-0.727778 0.075000 0.325000
-0.727778 0.475000 0.175000
-0.725000 0.020833 -0.175000
-0.725000 0.040000 -0.125000
-0.725000 0.070833 0.125000
-0.725000 0.075000 -0.062500
-0.725000 0.095833 0.075000
-0.725000 0.100000 -0.025000
-0.722222 0.025000 -0.325000
-0.722222 0.175000 -0.325000
-0.722222 0.275000 -0.325000
-0.722222 0.325000 -0.325000
-0.722222 0.325000 0.325000
-0.722222 0.375000 0.275000
-0.722222 0.525000 0.025000
-0.718750 0.125000 0.025000
-0.716667 0.125000 0.375000
-0.716667 0.225000 0.375000
-0.716667 0.375000 -0.275000
-0.716667 0.425000 -0.225000
-0.716667 0.475000 -0.125000
-0.711111 0.075000 0.375000
-0.711111 0.125000 -0.375000
-0.711111 0.275000 0.375000
-0.711111 0.425000 0.275000
-0.711111 0.525000 -0.075000
-0.711111 0.525000 -0.025000
-0.711111 0.525000 0.075000
-0.711111 0.525000 0.125000
-0.709375 -0.025000 0.225000
-0.705556 0.475000 -0.175000
-0.700000 -0.025000 -0.275000
-0.700000 0.125000 -0.025000
-0.700000 0.225000 -0.375000
-0.700000 0.325000 0.375000
-0.700000 0.375000 -0.325000
-0.695833 -0.025000 0.175000
-0.694444 -0.025000 -0.325000
-0.692857 0.025000 0.375000
-0.690000 0.025000 -0.075000
-0.690000 0.175000 -0.025000
-0.688889 0.425000 -0.325000
-0.688889 0.425000 0.325000
-0.688889 0.525000 0.225000
-0.688889 0.575000 0.025000
-0.687500 -0.025000 -0.225000
-0.685714 -0.075000 0.225000
-0.685714 -0.075000 0.275000
-0.684375 -0.025000 0.325000
-0.683333 0.075000 0.425000
-0.683333 0.125000 -0.425000
-0.683333 0.275000 0.425000
-0.683333 0.575000 -0.025000
-0.679167 -0.075000 0.175000
-0.679167 0.175000 0.025000
-0.678571 -0.075000 -0.275000
-0.677778 -0.075000 -0.325000
-0.677778 0.025000 -0.425000
-0.677778 0.475000 -0.275000
-0.675000 -0.025000 0.154167
-0.675000 -0.004167 -0.125000
-0.675000 0.025000 0.128571
-0.675000 0.075000 -0.043750
-0.675000 0.075000 0.109375
-0.675000 0.114286 0.075000
-0.675000 0.125000 -0.062500
-0.675000 0.375000 0.381250
-0.672222 0.525000 -0.225000
-0.672222 0.575000 -0.125000
-0.671875 -0.025000 0.375000
-0.670833 0.225000 -0.025000
-0.666667 -0.025000 -0.375000
-0.666667 0.125000 -0.075000
-0.666667 0.175000 -0.425000
-0.666667 0.175000 -0.075000
-0.666667 0.325000 -0.425000
-0.666667 0.525000 -0.275000
-0.666667 0.575000 -0.175000
-0.664286 -0.025000 -0.175000
-0.661111 0.425000 -0.375000
-0.661111 0.425000 0.375000
-0.661111 0.475000 -0.325000
-0.661111 0.475000 0.325000
-0.657143 0.225000 0.025000
-0.657143 -0.125000 0.175000
-0.657143 -0.025000 -0.125000
-0.656250 0.125000 0.075000
-0.655556 -0.125000 -0.275000
-0.650000 -0.125000 -0.325000
-0.650000 -0.125000 0.275000
-0.650000 0.225000 0.475000
-0.650000 0.275000 -0.025000
-0.650000 0.275000 0.475000
-0.650000 0.375000 -0.425000
-0.650000 0.525000 -0.325000
-0.650000 0.625000 -0.075000
-0.646875 -0.125000 -0.225000
-0.644444 0.125000 -0.475000
-0.644444 0.175000 0.475000
-0.644444 0.225000 -0.475000
-0.644444 0.625000 0.075000
-0.644444 0.625000 0.125000
-0.642857 -0.075000 0.325000
-0.640625 -0.075000 -0.175000
-0.640625 -0.025000 0.425000
-0.640000 -0.025000 -0.075000
-0.638889 0.075000 -0.475000
-0.638889 0.175000 -0.475000
-0.638889 0.475000 -0.375000
-0.638889 0.625000 -0.175000
-0.633333 0.325000 -0.475000
-0.627778 0.375000 0.475000
-0.625000 -0.170833 -0.275000
-0.625000 -0.170000 0.225000
-0.625000 -0.168750 -0.225000
-0.625000 -0.162500 0.175000
-0.625000 -0.157143 -0.325000
-0.625000 -0.137500 -0.175000
-0.625000 -0.125000 -0.357143
-0.625000 -0.125000 0.142857
-0.625000 -0.125000 0.318750
-0.625000 -0.075000 -0.116667
-0.625000 -0.075000 0.129167
-0.625000 -0.075000 0.366667
-0.625000 -0.025000 -0.454167
-0.625000 -0.025000 -0.062500
-0.625000 -0.025000 0.140000
-0.625000 0.025000 -0.045833
-0.625000 0.025000 0.130000
-0.625000 0.025000 0.485714
-0.625000 0.075000 -0.043750
-0.625000 0.075000 0.128571
-0.625000 0.075000 0.500000
-0.625000 0.100000 -0.075000
-0.625000 0.125000 -0.100000
-0.625000 0.125000 0.095833
-0.625000 0.175000 0.079167
-0.625000 0.225000 -0.085714
-0.625000 0.225000 0.070000
-0.625000 0.240000 -0.075000
-0.625000 0.275000 -0.040000
-0.625000 0.293750 -0.025000
-0.625000 0.525000 0.360000
-0.625000 0.579167 0.275000
-0.625000 0.620833 0.225000
-0.622222 0.625000 -0.225000
-0.621875 0.525000 -0.375000
-0.620000 0.275000 0.025000
-0.616667 0.575000 -0.325000
-0.614286 -0.075000 -0.425000
-0.611111 0.175000 0.525000
-0.611111 0.475000 0.425000
-0.611111 0.675000 -0.075000
-0.610000 -0.175000 -0.175000
-0.609375 0.625000 -0.275000
-0.607143 -0.025000 0.475000
-0.606250 -0.025000 0.125000
-0.605556 0.225000 -0.525000
-0.605556 0.225000 0.525000
-0.605556 0.475000 -0.425000
-0.604167 -0.175000 0.275000
-0.604167 -0.125000 -0.125000
-0.604167 -0.075000 -0.075000
-0.603125 0.025000 -0.525000
-0.600000 0.675000 -0.175000
-0.595833 0.325000 0.075000
-0.595833 0.075000 0.525000
-0.594444 0.325000 -0.525000
-0.593750 -0.175000 -0.325000
-0.593750 0.325000 -0.025000
-0.592857 -0.125000 -0.075000
-0.592857 -0.125000 0.375000
-0.590000 0.325000 0.025000
-0.587500 -0.175000 -0.125000
-0.585714 -0.175000 0.325000
-0.584375 -0.175000 -0.075000
-0.584375 0.475000 0.475000
-0.584375 0.525000 0.425000
-0.583333 0.025000 -0.025000
-0.578571 0.625000 -0.325000
-0.578125 0.375000 -0.525000
-0.578125 0.525000 -0.425000
-0.577778 0.075000 -0.575000
-0.577778 0.225000 -0.575000
-0.575000 -0.200000 -0.275000
-0.575000 -0.200000 -0.225000
-0.575000 -0.190000 0.175000
-0.575000 -0.175000 -0.064286
-0.575000 -0.150000 -0.375000
-0.575000 -0.140000 0.125000
-0.575000 -0.125000 -0.404167
-0.575000 -0.075000 -0.464286
-0.575000 -0.075000 -0.050000
-0.575000 -0.075000 0.456250
-0.575000 -0.062500 0.475000
-0.575000 -0.025000 0.507143
-0.575000 0.025000 0.112500
-0.575000 0.075000 -0.031250
-0.575000 0.075000 0.120833
-0.575000 0.125000 -0.070833
-0.575000 0.125000 0.092857
-0.575000 0.125000 0.550000
-0.575000 0.175000 -0.064286
-0.575000 0.175000 0.085714
-0.575000 0.225000 -0.085714
-0.575000 0.225000 0.107143
-0.575000 0.250000 -0.075000
-0.575000 0.275000 -0.056250
-0.575000 0.275000 0.100000
-0.575000 0.325000 -0.062500
-0.575000 0.325000 0.095833
-0.575000 0.325000 0.546875
-0.575000 0.333333 0.025000
-0.575000 0.334375 -0.025000
-0.575000 0.338889 0.075000
-0.575000 0.375000 0.542857
-0.575000 0.592857 -0.375000
-0.575000 0.620833 0.325000
-0.575000 0.659375 -0.275000
-0.575000 0.685714 0.225000
-0.575000 0.696875 0.175000
-0.575000 0.703125 0.075000
-0.575000 0.705556 -0.125000
-0.575000 0.715625 -0.075000
-0.572222 0.025000 -0.575000
-0.571875 0.425000 0.525000
-0.571875 0.475000 -0.475000
-0.571875 0.725000 -0.025000
-0.570833 -0.025000 -0.525000
-0.570000 -0.225000 -0.175000
-0.570000 -0.225000 0.225000
-0.570000 -0.225000 0.275000
-0.566667 -0.025000 -0.025000
-0.566667 0.275000 -0.575000
-0.566667 0.325000 -0.575000
-0.566667 0.725000 0.025000
-0.560000 -0.125000 0.425000
-0.554167 -0.225000 0.325000
-0.553125 0.425000 -0.525000
-0.550000 -0.125000 -0.425000
-0.550000 -0.025000 -0.575000
-0.550000 0.375000 -0.575000
-0.542857 0.375000 0.575000
-0.542857 0.475000 0.525000
-0.542857 0.725000 0.175000
-0.540625 0.525000 -0.475000
-0.540000 -0.075000 -0.025000
-0.540000 -0.075000 0.075000
-0.537500 -0.225000 -0.125000
-0.535714 0.725000 0.225000
-0.533333 -0.025000 0.025000
-0.533333 0.025000 0.025000
-0.531250 -0.025000 0.075000
-0.530000 -0.075000 0.025000
-0.525000 -0.253125 -0.175000
-0.525000 -0.253125 0.225000
-0.525000 -0.250000 0.275000
-0.525000 -0.225000 -0.262500
-0.525000 -0.225000 0.156250
-0.525000 -0.225000 0.354167
-0.525000 -0.220000 -0.075000
-0.525000 -0.204167 0.125000
-0.525000 -0.200000 -0.325000
-0.525000 -0.179167 -0.375000
-0.525000 -0.175000 0.100000
-0.525000 -0.175000 0.420000
-0.525000 -0.125000 -0.035714
-0.525000 -0.125000 0.450000
-0.525000 -0.112500 0.075000
-0.525000 -0.075000 0.500000
-0.525000 -0.070833 -0.525000
-0.525000 -0.046875 -0.575000
-0.525000 -0.025000 0.535714
-0.525000 0.050000 -0.025000
-0.525000 0.075000 -0.040000
-0.525000 0.075000 0.578125
-0.525000 0.125000 -0.071429
-0.525000 0.125000 0.085714
-0.525000 0.125000 0.600000
-0.525000 0.175000 -0.053125
-0.525000 0.175000 0.078571
-0.525000 0.175000 0.611111
-0.525000 0.225000 -0.070833
-0.525000 0.225000 0.107143
-0.525000 0.275000 -0.031250
-0.525000 0.275000 0.605556
-0.525000 0.318750 -0.075000
-0.525000 0.325000 0.594444
-0.525000 0.334375 0.075000
-0.525000 0.420000 -0.575000
-0.525000 0.425000 0.566667
-0.525000 0.550000 0.475000
-0.525000 0.600000 0.425000
-0.525000 0.685714 0.325000
-0.525000 0.715625 0.275000
-0.525000 0.734375 -0.225000
-0.525000 0.744444 0.125000
-0.525000 0.750000 -0.175000
-0.525000 0.750000 -0.125000
-0.525000 0.750000 0.075000
-0.520833 -0.125000 -0.475000
-0.520000 0.025000 0.075000
-0.520000 0.075000 0.075000
-0.514286 -0.175000 -0.425000
-0.506250 0.125000 0.075000
-0.500000 -0.225000 0.375000
-0.500000 0.075000 -0.025000
-0.500000 0.275000 -0.025000
-0.496875 0.675000 0.375000
-0.495833 -0.175000 0.075000
-0.495833 -0.125000 0.025000
-0.493750 0.075000 0.025000
-0.492857 0.125000 0.625000
-0.490000 -0.075000 0.525000
-0.487500 -0.175000 -0.475000
-0.487500 0.275000 0.075000
-0.487500 0.325000 0.075000
-0.485714 -0.025000 0.575000
-0.480000 -0.175000 0.025000
-0.479167 -0.225000 0.425000
-0.475000 -0.278571 -0.175000
-0.475000 -0.271875 0.275000
-0.475000 -0.271875 0.325000
-0.475000 -0.264286 0.225000
-0.475000 -0.262500 -0.125000
-0.475000 -0.257143 -0.225000
-0.475000 -0.254167 -0.275000
-0.475000 -0.240625 0.175000
-0.475000 -0.240000 -0.325000
-0.475000 -0.237500 -0.075000
-0.475000 -0.231250 -0.375000
-0.475000 -0.225000 0.116667
-0.475000 -0.220833 -0.425000
-0.475000 -0.200000 0.075000
-0.475000 -0.175000 0.000000
-0.475000 -0.175000 0.478571
-0.475000 -0.166667 -0.025000
-0.475000 -0.125000 -0.514286
-0.475000 -0.125000 0.507143
-0.475000 -0.075000 0.550000
-0.475000 -0.065625 -0.575000
-0.475000 0.025000 0.600000
-0.475000 0.075000 0.614286
-0.475000 0.093750 0.025000
-0.475000 0.125000 -0.054167
-0.475000 0.175000 0.644444
-0.475000 0.225000 -0.050000
-0.475000 0.225000 0.085714
-0.475000 0.262500 0.075000
-0.475000 0.266667 -0.025000
-0.475000 0.275000 0.000000
-0.475000 0.275000 0.050000
-0.475000 0.275000 0.644444
-0.475000 0.306250 -0.075000
-0.475000 0.325000 -0.100000
-0.475000 0.325000 0.062500
-0.475000 0.335714 -0.075000
-0.475000 0.337500 0.025000
-0.475000 0.345833 -0.025000
-0.475000 0.375000 0.627778
-0.475000 0.475000 0.578125
-0.475000 0.495833 -0.575000
-0.475000 0.554167 0.525000
-0.475000 0.575000 -0.507143
-0.475000 0.725000 -0.330000
-0.475000 0.734375 0.325000
-0.475000 0.759375 -0.275000
-0.475000 0.772222 0.225000
-0.475000 0.794444 -0.175000
-0.475000 0.805556 -0.075000
-0.475000 0.811111 -0.025000
-0.475000 0.811111 0.025000
-0.470833 0.275000 0.025000
-0.470000 0.175000 0.025000
-0.466667 0.175000 -0.025000
-0.462500 -0.075000 0.575000
-0.460000 0.225000 0.075000
-0.457143 0.575000 -0.525000
-0.454167 0.125000 0.025000
-0.454167 0.225000 0.025000
-0.454167 0.575000 0.525000
-0.453125 0.525000 -0.575000
-0.437500 -0.075000 -0.575000
-0.437500 0.825000 0.075000
-0.433333 0.225000 -0.025000
-0.433333 0.325000 -0.025000
-0.431250 0.125000 -0.025000
-0.429167 0.125000 0.675000
-0.425000 -0.315625 -0.175000
-0.425000 -0.303125 -0.125000
-0.425000 -0.300000 -0.225000
-0.425000 -0.290625 0.325000
-0.425000 -0.278571 -0.275000
-0.425000 -0.275000 -0.087500
-0.425000 -0.271429 -0.325000
-0.425000 -0.271429 0.225000
-0.425000 -0.265625 0.375000
-0.425000 -0.264286 -0.375000
-0.425000 -0.259375 0.425000
-0.425000 -0.255556 0.175000
-0.425000 -0.254167 0.075000
-0.425000 -0.253125 -0.425000
-0.425000 -0.250000 0.125000
-0.425000 -0.225000 -0.040000
-0.425000 -0.225000 0.479167
-0.425000 -0.209375 -0.475000
-0.425000 -0.206250 0.025000
-0.425000 -0.187500 -0.025000
-0.425000 -0.175000 -0.509375
-0.425000 -0.175000 0.514286
-0.425000 -0.125000 -0.537500
-0.425000 -0.080000 -0.575000
-0.425000 -0.075000 0.612500
-0.425000 -0.025000 0.645833
-0.425000 0.025000 0.664286
-0.425000 0.075000 0.665625
-0.425000 0.375000 0.655556
-0.425000 0.425000 0.628125
-0.425000 0.525000 0.578125
-0.425000 0.570000 -0.575000
-0.425000 0.607143 -0.525000
-0.425000 0.657143 -0.475000
-0.425000 0.700000 -0.425000
-0.425000 0.700000 0.425000
-0.425000 0.740625 0.375000
-0.425000 0.746875 -0.375000
-0.425000 0.766667 0.325000
-0.425000 0.778125 -0.325000
-0.425000 0.800000 0.225000
-0.425000 0.811111 0.175000
-0.425000 0.816667 -0.225000
-0.425000 0.833333 -0.125000
-0.425000 0.833333 -0.075000
-0.425000 0.838889 0.025000
-0.420833 0.575000 -0.575000
-0.418750 -0.075000 -0.575000
-0.412500 -0.225000 0.025000
-0.412500 -0.125000 0.575000
-0.410000 -0.225000 -0.025000
-0.390000 -0.025000 0.675000
-0.390000 0.675000 0.475000
-0.375000 -0.309375 -0.175000
-0.375000 -0.309375 0.275000
-0.375000 -0.300000 0.325000
-0.375000 -0.292857 -0.125000
-0.375000 -0.285714 -0.275000
-0.375000 -0.275000 -0.300000
-0.375000 -0.275000 -0.093750
-0.375000 -0.275000 0.162500
-0.375000 -0.271875 0.075000
-0.375000 -0.271875 0.375000
-0.375000 -0.265625 -0.325000
-0.375000 -0.264286 0.125000
-0.375000 -0.259375 0.425000
-0.375000 -0.253125 0.025000
-0.375000 -0.246875 -0.375000
-0.375000 -0.246875 -0.025000
-0.375000 -0.240625 0.475000
-0.375000 -0.225000 0.500000
-0.375000 -0.221875 -0.425000
-0.375000 -0.175000 -0.487500
-0.375000 -0.175000 0.550000
-0.375000 -0.100000 -0.525000
-0.375000 -0.075000 -0.540000
-0.375000 -0.075000 0.650000
-0.375000 -0.031250 -0.575000
-0.375000 0.075000 0.700000
-0.375000 0.175000 0.711111
-0.375000 0.275000 0.711111
-0.375000 0.375000 0.688889
-0.375000 0.475000 0.638889
-0.375000 0.575000 0.584375
-0.375000 0.605556 -0.575000
-0.375000 0.625000 0.540625
-0.375000 0.675000 -0.496875
-0.375000 0.740625 -0.425000
-0.375000 0.778125 -0.375000
-0.375000 0.811111 -0.325000
-0.375000 0.850000 0.175000
-0.375000 0.866667 -0.125000
-0.375000 0.866667 -0.075000
-0.375000 0.872222 -0.025000
-0.375000 0.872222 0.075000
-0.353125 -0.025000 -0.525000
-0.350000 -0.225000 0.525000
-0.335714 0.025000 -0.575000
-0.328125 -0.025000 -0.475000
-0.325000 -0.327778 0.275000
-0.325000 -0.321875 0.225000
-0.325000 -0.314286 0.325000
-0.325000 -0.309375 -0.175000
-0.325000 -0.307143 -0.125000
-0.325000 -0.307143 0.175000
-0.325000 -0.295833 -0.075000
-0.325000 -0.292857 -0.225000
-0.325000 -0.292857 0.375000
-0.325000 -0.287500 -0.275000
-0.325000 -0.278571 0.125000
-0.325000 -0.278571 0.425000
-0.325000 -0.271875 0.075000
-0.325000 -0.264286 -0.025000
-0.325000 -0.259375 0.025000
-0.325000 -0.250000 -0.325000
-0.325000 -0.225000 -0.360000
-0.325000 -0.175000 -0.431250
-0.325000 -0.175000 0.578125
-0.325000 -0.125000 -0.460000
-0.325000 -0.125000 0.621429
-0.325000 -0.070833 0.675000
-0.325000 -0.025000 0.705556
-0.325000 0.012500 -0.525000
-0.325000 0.025000 0.716667
-0.325000 0.035714 -0.575000
-0.325000 0.075000 0.722222
-0.325000 0.125000 0.727778
-0.325000 0.175000 0.733333
-0.325000 0.225000 0.733333
-0.325000 0.325000 0.722222
-0.325000 0.425000 0.683333
-0.325000 0.575000 0.609375
-0.325000 0.633333 -0.575000
-0.325000 0.671429 -0.525000
-0.325000 0.671429 0.525000
-0.325000 0.766667 -0.425000
-0.325000 0.775000 0.414286
-0.325000 0.805556 0.375000
-0.325000 0.833333 -0.325000
-0.325000 0.833333 0.325000
-0.325000 0.855556 -0.275000
-0.325000 0.866667 0.225000
-0.325000 0.872222 -0.225000
-0.325000 0.877778 0.175000
-0.325000 0.883333 -0.125000
-0.325000 0.883333 -0.075000
-0.325000 0.888889 -0.025000
-0.325000 0.888889 0.075000
-0.315625 -0.075000 -0.475000
-0.314286 -0.025000 -0.425000
-0.303125 -0.125000 -0.425000
-0.303125 -0.075000 -0.425000
-0.300000 -0.225000 -0.325000
-0.300000 0.025000 0.725000
-0.294444 -0.175000 -0.375000
-0.292857 -0.025000 -0.375000
-0.287500 0.025000 -0.425000
-0.283333 -0.175000 -0.325000
-0.278571 -0.025000 -0.325000
-0.278125 -0.125000 -0.375000
-0.278125 -0.075000 -0.325000
-0.277778 0.125000 0.775000
-0.275000 -0.333333 0.225000
-0.275000 -0.321875 0.175000
-0.275000 -0.321875 0.325000
-0.275000 -0.303125 0.375000
-0.275000 -0.296875 0.125000
-0.275000 -0.292857 -0.125000
-0.275000 -0.290625 0.425000
-0.275000 -0.290000 -0.075000
-0.275000 -0.277778 0.475000
-0.275000 -0.275000 0.066667
-0.275000 -0.266667 0.525000
-0.275000 -0.259375 0.025000
-0.275000 -0.256250 -0.025000
-0.275000 -0.225000 0.578571
-0.275000 -0.125000 0.646875
-0.275000 -0.025000 0.711111
-0.275000 0.054167 -0.475000
-0.275000 0.075000 0.757143
-0.275000 0.078571 -0.525000
-0.275000 0.092857 -0.575000
-0.275000 0.116667 0.775000
-0.275000 0.150000 0.775000
-0.275000 0.225000 0.759375
-0.275000 0.325000 0.738889
-0.275000 0.375000 0.727778
-0.275000 0.475000 0.694444
-0.275000 0.575000 0.638889
-0.275000 0.665625 -0.575000
-0.275000 0.703125 0.525000
-0.275000 0.707143 -0.525000
-0.275000 0.753125 -0.475000
-0.275000 0.783333 -0.425000
-0.275000 0.811111 -0.375000
-0.275000 0.844444 -0.325000
-0.275000 0.855556 0.325000
-0.275000 0.888889 0.225000
-0.275000 0.905556 -0.125000
-0.275000 0.905556 0.125000
-0.275000 0.916667 -0.025000
-0.275000 0.916667 0.025000
-0.271875 -0.125000 -0.325000
-0.270833 -0.225000 -0.275000
-0.270833 0.175000 0.775000
-0.268750 -0.275000 -0.175000
-0.264286 -0.175000 -0.275000
-0.262500 -0.225000 -0.225000
-0.262500 0.025000 -0.375000
-0.262500 0.675000 -0.575000
-0.256250 -0.275000 -0.075000
-0.254167 -0.225000 -0.025000
-0.253125 -0.125000 -0.275000
-0.250000 -0.175000 -0.225000
-0.250000 -0.075000 -0.275000
-0.250000 0.075000 0.775000
-0.246875 -0.125000 -0.225000
-0.245833 0.025000 -0.325000
-0.244444 -0.075000 -0.225000
-0.244444 -0.025000 -0.275000
-0.243750 -0.275000 -0.125000
-0.243750 0.225000 0.775000
-0.237500 -0.175000 -0.025000
-0.235714 -0.225000 -0.125000
-0.235714 -0.225000 -0.075000
-0.233333 -0.125000 -0.125000
-0.233333 -0.025000 -0.225000
-0.228571 -0.225000 -0.175000
-0.228125 -0.175000 -0.125000
-0.227778 -0.075000 -0.175000
-0.227778 -0.075000 -0.125000
-0.225000 -0.338889 0.225000
-0.225000 -0.338889 0.275000
-0.225000 -0.333333 0.325000
-0.225000 -0.325000 0.362500
-0.225000 -0.321875 0.175000
-0.225000 -0.316667 0.425000
-0.225000 -0.283333 0.525000
-0.225000 -0.275000 0.093750
-0.225000 -0.253125 0.575000
-0.225000 -0.225000 0.031250
-0.225000 -0.225000 0.603125
-0.225000 -0.175000 0.633333
-0.225000 -0.125000 0.653125
-0.225000 -0.075000 0.690625
-0.225000 -0.025000 0.716667
-0.225000 0.025000 -0.304167
-0.225000 0.050000 0.775000
-0.225000 0.053125 -0.375000
-0.225000 0.072222 -0.425000
-0.225000 0.084375 -0.475000
-0.225000 0.111111 -0.525000
-0.225000 0.128125 -0.575000
-0.225000 0.262500 0.775000
-0.225000 0.325000 0.750000
-0.225000 0.375000 0.746875
-0.225000 0.475000 0.711111
-0.225000 0.525000 0.688889
-0.225000 0.575000 0.661111
-0.225000 0.621429 0.625000
-0.225000 0.678571 0.575000
-0.225000 0.700000 -0.575000
-0.225000 0.725000 0.528571
-0.225000 0.734375 -0.525000
-0.225000 0.775000 0.471429
-0.225000 0.778125 -0.475000
-0.225000 0.811111 0.425000
-0.225000 0.833333 -0.375000
-0.225000 0.844444 0.375000
-0.225000 0.872222 0.325000
-0.225000 0.888889 -0.275000
-0.225000 0.905556 -0.225000
-0.225000 0.905556 0.225000
-0.225000 0.911111 -0.175000
-0.222222 -0.025000 -0.125000
-0.221875 -0.175000 -0.175000
-0.221875 -0.125000 -0.175000
-0.221429 -0.125000 -0.075000
-0.221429 -0.125000 -0.025000
-0.220833 0.275000 0.775000
-0.218750 0.425000 0.725000
-0.216667 -0.025000 -0.175000
-0.215625 -0.075000 -0.075000
-0.209375 -0.075000 -0.025000
-0.207143 -0.175000 0.025000
-0.200000 -0.275000 0.125000
-0.200000 0.325000 0.775000
-0.192857 -0.025000 -0.025000
-0.190625 -0.075000 0.025000
-0.187500 0.375000 0.775000
-0.183333 0.925000 0.175000
-0.179167 0.025000 -0.175000
-0.179167 0.025000 -0.125000
-0.177778 -0.125000 0.075000
-0.175000 -0.327778 0.275000
-0.175000 -0.322222 0.325000
-0.175000 -0.322222 0.375000
-0.175000 -0.321875 0.225000
-0.175000 -0.315625 0.425000
-0.175000 -0.303125 0.475000
-0.175000 -0.275000 0.145833
-0.175000 -0.275000 0.531250
-0.175000 -0.225000 0.609375
-0.175000 -0.175000 0.650000
-0.175000 -0.125000 0.671429
-0.175000 -0.025000 0.006250
-0.175000 -0.020833 0.725000
-0.175000 0.035714 0.775000
-0.175000 0.053125 -0.275000
-0.175000 0.077778 -0.325000
-0.175000 0.083333 -0.375000
-0.175000 0.094444 -0.425000
-0.175000 0.100000 -0.475000
-0.175000 0.116667 -0.525000
-0.175000 0.387500 0.775000
-0.175000 0.425000 0.746875
-0.175000 0.468750 0.725000
-0.175000 0.575000 0.672222
-0.175000 0.696875 0.575000
-0.175000 0.716667 -0.575000
-0.175000 0.725000 0.546875
-0.175000 0.750000 -0.525000
-0.175000 0.788889 0.475000
-0.175000 0.794444 -0.475000
-0.175000 0.900000 0.275000
-0.175000 0.916667 -0.225000
-0.175000 0.938889 -0.125000
-0.175000 0.938889 0.125000
-0.175000 0.950000 -0.025000
-0.175000 0.950000 0.025000
-0.171875 -0.075000 0.075000
-0.164286 -0.225000 0.125000
-0.150000 0.025000 0.775000
-0.146875 -0.175000 0.125000
-0.137500 -0.025000 0.075000
-0.125000 -0.333333 0.375000
-0.125000 -0.327778 0.275000
-0.125000 -0.327778 0.425000
-0.125000 -0.315625 0.225000
-0.125000 -0.315625 0.475000
-0.125000 -0.284375 0.525000
-0.125000 -0.275000 0.171429
-0.125000 -0.255556 0.575000
-0.125000 -0.225000 0.159375
-0.125000 -0.225000 0.614286
-0.125000 -0.214286 0.625000
-0.125000 -0.175000 0.150000
-0.125000 -0.140000 0.675000
-0.125000 -0.125000 0.150000
-0.125000 -0.075000 0.135714
-0.125000 0.010000 0.775000
-0.125000 0.033333 -0.025000
-0.125000 0.044444 -0.075000
-0.125000 0.050000 -0.175000
-0.125000 0.050000 -0.125000
-0.125000 0.066667 -0.275000
-0.125000 0.083333 -0.325000
-0.125000 0.094444 -0.375000
-0.125000 0.105556 -0.475000
-0.125000 0.400000 0.775000
-0.125000 0.525000 0.716667
-0.125000 0.575000 0.688889
-0.125000 0.625000 0.655556
-0.125000 0.675000 0.605556
-0.125000 0.721875 -0.575000
-0.125000 0.750000 0.525000
-0.125000 0.805556 -0.475000
-0.125000 0.828125 0.425000
-0.125000 0.833333 -0.425000
-0.125000 0.866667 -0.375000
-0.125000 0.866667 0.375000
-0.125000 0.883333 -0.325000
-0.125000 0.883333 0.325000
-0.125000 0.911111 -0.275000
-0.125000 0.944444 -0.175000
-0.125000 0.944444 0.175000
-0.125000 0.950000 -0.125000
-0.125000 0.950000 0.025000
-0.125000 0.950000 0.125000
-0.083333 -0.075000 0.725000
-0.075000 -0.333333 0.275000
-0.075000 -0.333333 0.325000
-0.075000 -0.328125 0.375000
-0.075000 -0.300000 0.225000
-0.075000 -0.292857 0.475000
-0.075000 -0.275000 0.203125
-0.075000 -0.271875 0.525000
-0.075000 -0.244444 0.575000
-0.075000 -0.225000 0.188889
-0.075000 -0.175000 0.183333
-0.075000 -0.175000 0.661111
-0.075000 -0.125000 0.183333
-0.075000 -0.075000 0.166667
-0.075000 -0.025000 0.129167
-0.075000 -0.018750 0.775000
-0.075000 0.015625 0.075000
-0.075000 0.025000 0.050000
-0.075000 0.053125 -0.075000
-0.075000 0.055556 -0.225000
-0.075000 0.057143 -0.025000
-0.075000 0.066667 -0.275000
-0.075000 0.094444 -0.375000
-0.075000 0.128125 -0.575000
-0.075000 0.404167 0.775000
-0.075000 0.425000 0.759375
-0.075000 0.525000 0.727778
-0.075000 0.625000 0.655556
-0.075000 0.725000 0.571875
-0.075000 0.733333 -0.575000
-0.075000 0.811111 0.475000
-0.075000 0.894444 0.325000
-0.075000 0.916667 -0.275000
-0.075000 0.922222 0.275000
-0.075000 0.938889 0.225000
-0.075000 0.950000 -0.175000
-0.075000 0.950000 0.175000
-0.068750 -0.025000 0.775000
-0.035714 0.075000 0.025000
-0.025000 -0.344444 0.275000
-0.025000 -0.344444 0.325000
-0.025000 -0.314286 0.225000
-0.025000 -0.309375 0.425000
-0.025000 -0.285714 0.475000
-0.025000 -0.275000 0.194444
-0.025000 -0.271429 0.525000
-0.025000 -0.225000 0.183333
-0.025000 -0.216667 0.625000
-0.025000 -0.178571 0.675000
-0.025000 -0.175000 0.177778
-0.025000 -0.125000 0.172222
-0.025000 -0.125000 0.722222
-0.025000 -0.075000 0.161111
-0.025000 -0.075000 0.746875
-0.025000 -0.046875 0.775000
-0.025000 -0.025000 0.128571
-0.025000 0.025000 0.084375
-0.025000 0.050000 -0.125000
-0.025000 0.055556 -0.275000
-0.025000 0.071429 -0.075000
-0.025000 0.075000 0.035714
-0.025000 0.088889 -0.375000
-0.025000 0.100000 0.025000
-0.025000 0.105556 -0.475000
-0.025000 0.105556 -0.425000
-0.025000 0.110000 -0.025000
-0.025000 0.133333 -0.575000
-0.025000 0.404167 0.775000
-0.025000 0.425000 0.759375
-0.025000 0.475000 0.750000
-0.025000 0.525000 0.728125
-0.025000 0.575000 0.694444
-0.025000 0.625000 0.650000
-0.025000 0.675000 0.616667
-0.025000 0.728571 0.575000
-0.025000 0.738889 -0.575000
-0.025000 0.772222 0.525000
-0.025000 0.811111 -0.475000
-0.025000 0.811111 0.475000
-0.025000 0.877778 -0.375000
-0.025000 0.877778 0.375000
-0.025000 0.894444 -0.325000
0.025000 -0.346875 0.275000
0.025000 -0.344444 0.325000
0.025000 -0.315625 0.375000
0.025000 -0.296875 0.425000
0.025000 -0.271429 0.475000
0.025000 -0.257143 0.525000
0.025000 -0.234375 0.575000
0.025000 -0.179167 0.675000
0.025000 -0.175000 0.172222
0.025000 -0.125000 0.721875
0.025000 -0.075000 0.161111
0.025000 -0.075000 0.750000
0.025000 -0.040000 0.775000
0.025000 -0.025000 0.135714
0.025000 0.028571 0.075000
0.025000 0.050000 -0.275000
0.025000 0.050000 -0.125000
0.025000 0.064286 -0.075000
0.025000 0.070000 0.025000
0.025000 0.075000 -0.333333
0.025000 0.075000 -0.050000
0.025000 0.100000 -0.025000
0.025000 0.105556 -0.475000
0.025000 0.116667 -0.525000
0.025000 0.122222 -0.575000
0.025000 0.420833 0.775000
0.025000 0.475000 0.744444
0.025000 0.525000 0.722222
0.025000 0.675000 0.622222
0.025000 0.725000 0.578571
0.025000 0.750000 -0.575000
0.025000 0.772222 -0.525000
0.025000 0.772222 0.525000
0.025000 0.872222 -0.375000
0.025000 0.877778 0.375000
0.025000 0.916667 -0.275000
0.025000 0.922222 0.275000
0.025000 0.938889 0.225000
0.025000 0.950000 -0.175000
0.025000 0.950000 -0.125000
0.035714 0.075000 -0.025000
0.050000 0.425000 0.775000
0.075000 -0.340625 0.275000
0.075000 -0.325000 0.254167
0.075000 -0.325000 0.368750
0.075000 -0.321875 0.375000
0.075000 -0.314286 0.425000
0.075000 -0.295833 0.225000
0.075000 -0.279167 0.475000
0.075000 -0.275000 0.211111
0.075000 -0.221429 0.575000
0.075000 -0.207143 0.625000
0.075000 -0.175000 0.172222
0.075000 -0.170000 0.675000
0.075000 -0.125000 0.161111
0.075000 -0.125000 0.707143
0.075000 -0.075000 0.166667
0.075000 -0.075000 0.737500
0.075000 -0.030000 0.775000
0.075000 -0.014286 0.125000
0.075000 0.015625 0.075000
0.075000 0.028571 0.025000
0.075000 0.040625 -0.075000
0.075000 0.044444 -0.125000
0.075000 0.050000 -0.175000
0.075000 0.088889 -0.375000
0.075000 0.115625 -0.475000
0.075000 0.116667 -0.425000
0.075000 0.127778 -0.575000
0.075000 0.127778 -0.525000
0.075000 0.428125 0.775000
0.075000 0.525000 0.711111
0.075000 0.575000 0.683333
0.075000 0.625000 0.650000
0.075000 0.716667 0.575000
0.075000 0.738889 -0.575000
0.075000 0.761111 0.525000
0.075000 0.800000 0.475000
0.075000 0.805556 -0.475000
0.075000 0.838889 0.425000
0.075000 0.872222 -0.375000
0.075000 0.872222 0.375000
0.075000 0.950000 0.175000
0.083333 -0.025000 0.775000
0.083333 0.425000 0.775000
0.085714 0.025000 -0.025000
0.093750 -0.025000 0.125000
0.121429 -0.025000 0.075000
0.125000 -0.344444 0.325000
0.125000 -0.340625 0.275000
0.125000 -0.327778 0.375000
0.125000 -0.314286 0.225000
0.125000 -0.309375 0.425000
0.125000 -0.278571 0.475000
0.125000 -0.275000 0.185714
0.125000 -0.256250 0.175000
0.125000 -0.228571 0.575000
0.125000 -0.225000 0.154167
0.125000 -0.175000 0.657143
0.125000 -0.075000 0.142857
0.125000 -0.060000 0.725000
0.125000 -0.050000 0.125000
0.125000 -0.009375 0.775000
0.125000 0.011111 -0.075000
0.125000 0.027778 -0.125000
0.125000 0.038889 -0.175000
0.125000 0.061111 -0.275000
0.125000 0.083333 -0.325000
0.125000 0.094444 -0.375000
0.125000 0.109375 -0.475000
0.125000 0.111111 -0.425000
0.125000 0.128125 -0.525000
0.125000 0.140625 -0.575000
0.125000 0.404167 0.775000
0.125000 0.475000 0.722222
0.125000 0.525000 0.705556
0.125000 0.575000 0.683333
0.125000 0.625000 0.655556
0.125000 0.675000 0.611111
0.125000 0.711111 0.575000
0.125000 0.733333 -0.575000
0.125000 0.755556 0.525000
0.125000 0.761111 -0.525000
0.125000 0.883333 0.325000
0.125000 0.905556 -0.275000
0.125000 0.911111 0.275000
0.125000 0.938889 -0.175000
0.125000 0.950000 -0.125000
0.128571 -0.125000 0.125000
0.129167 -0.025000 0.025000
0.142857 -0.075000 0.125000
0.143750 -0.275000 0.175000
0.145833 -0.175000 0.125000
0.145833 -0.025000 -0.025000
0.150000 -0.225000 0.125000
0.150000 -0.125000 0.075000
0.168750 0.375000 0.775000
0.172222 -0.175000 0.025000
0.175000 -0.346875 0.325000
0.175000 -0.328571 0.375000
0.175000 -0.321875 0.225000
0.175000 -0.315625 0.425000
0.175000 -0.275000 0.133333
0.175000 -0.271429 0.475000
0.175000 -0.225000 0.581250
0.175000 -0.205556 0.625000
0.175000 -0.175000 0.655556
0.175000 -0.131250 0.675000
0.175000 -0.125000 0.006250
0.175000 -0.075000 0.000000
0.175000 -0.025000 -0.081250
0.175000 -0.025000 0.729167
0.175000 -0.003125 -0.125000
0.175000 0.009375 -0.175000
0.175000 0.014286 0.775000
0.175000 0.034375 -0.225000
0.175000 0.053125 -0.275000
0.175000 0.077778 -0.325000
0.175000 0.088889 -0.375000
0.175000 0.105556 -0.425000
0.175000 0.115625 -0.475000
0.175000 0.140625 -0.525000
0.175000 0.159375 -0.575000
0.175000 0.368750 0.775000
0.175000 0.425000 0.740625
0.175000 0.456250 0.725000
0.175000 0.575000 0.672222
0.175000 0.625000 0.634375
0.175000 0.675000 0.588889
0.175000 0.775000 0.485714
0.175000 0.788889 -0.475000
0.175000 0.828125 -0.425000
0.175000 0.861111 -0.375000
0.175000 0.877778 0.325000
0.175000 0.883333 -0.325000
0.175000 0.894444 -0.275000
0.175000 0.900000 0.275000
0.175000 0.927778 0.175000
0.175000 0.938889 0.125000
0.175000 0.944444 -0.125000
0.175000 0.950000 -0.075000
0.175000 0.950000 0.075000
0.183333 -0.275000 0.075000
0.183333 -0.225000 -0.025000
0.183333 -0.175000 -0.025000
0.193750 0.025000 0.775000
0.196875 -0.025000 -0.125000
0.200000 -0.075000 -0.075000
0.200000 0.325000 0.775000
0.203125 -0.225000 -0.075000
0.209375 -0.025000 -0.175000
0.210000 -0.325000 0.175000
0.212500 -0.325000 0.125000
0.216667 -0.275000 -0.075000
0.222222 -0.275000 -0.125000
0.222222 -0.075000 -0.125000
0.225000 -0.333333 0.175000
0.225000 -0.333333 0.225000
0.225000 -0.328571 0.275000
0.225000 -0.328571 0.325000
0.225000 -0.325000 0.062500
0.225000 -0.314286 0.025000
0.225000 -0.300000 -0.025000
0.225000 -0.300000 0.425000
0.225000 -0.271875 0.475000
0.225000 -0.255556 0.525000
0.225000 -0.233333 0.575000
0.225000 -0.175000 -0.133333
0.225000 -0.175000 0.642857
0.225000 -0.130000 0.675000
0.225000 -0.025000 0.728125
0.225000 0.025000 -0.293750
0.225000 0.050000 0.775000
0.225000 0.071875 -0.375000
0.225000 0.092857 -0.425000
0.225000 0.109375 -0.475000
0.225000 0.125000 -0.506250
0.225000 0.159375 -0.575000
0.225000 0.290000 0.775000
0.225000 0.325000 0.753125
0.225000 0.375000 0.738889
0.225000 0.416667 0.725000
0.225000 0.475000 0.705556
0.225000 0.525000 0.678125
0.225000 0.675000 0.571875
0.225000 0.700000 -0.575000
0.225000 0.728125 -0.525000
0.225000 0.771875 -0.475000
0.225000 0.805556 0.425000
0.225000 0.838889 -0.375000
0.225000 0.866667 0.325000
0.225000 0.883333 -0.275000
0.225000 0.883333 0.275000
0.225000 0.916667 -0.175000
0.225000 0.927778 -0.125000
0.227778 -0.125000 -0.125000
0.227778 -0.075000 -0.175000
0.235714 -0.275000 -0.175000
0.238889 -0.225000 -0.175000
0.238889 -0.125000 -0.175000
0.240000 0.275000 0.775000
0.240625 -0.025000 -0.225000
0.242857 0.075000 0.775000
0.250000 0.125000 -0.525000
0.250000 0.125000 0.775000
0.254167 0.225000 0.775000
0.255556 -0.075000 -0.225000
0.261111 -0.175000 -0.225000
0.261111 -0.125000 -0.225000
0.266667 -0.175000 -0.275000
0.266667 -0.125000 -0.275000
0.268750 -0.325000 -0.025000
0.270000 -0.275000 -0.225000
0.270833 0.125000 -0.575000
0.270833 0.175000 0.775000
0.275000 -0.333333 -0.075000
0.275000 -0.328125 -0.125000
0.275000 -0.327778 0.025000
0.275000 -0.327778 0.075000
0.275000 -0.327778 0.125000
0.275000 -0.314286 -0.175000
0.275000 -0.311111 0.275000
0.275000 -0.305556 0.325000
0.275000 -0.278125 0.425000
0.275000 -0.234375 0.525000
0.275000 -0.164286 0.625000
0.275000 -0.125000 0.659375
0.275000 -0.075000 0.684375
0.275000 -0.025000 -0.331250
0.275000 0.025000 0.727778
0.275000 0.059375 -0.425000
0.275000 0.075000 0.746875
0.275000 0.090000 -0.475000
0.275000 0.106250 -0.525000
0.275000 0.125000 0.753125
0.275000 0.325000 0.733333
0.275000 0.425000 0.711111
0.275000 0.475000 0.694444
0.275000 0.575000 0.627778
0.275000 0.625000 0.588889
0.275000 0.677778 -0.575000
0.275000 0.788889 0.425000
0.275000 0.822222 0.375000
0.275000 0.850000 0.325000
0.275000 0.883333 0.225000
0.275000 0.900000 0.175000
0.275000 0.911111 0.125000
0.275000 0.916667 -0.075000
0.275000 0.916667 0.075000
0.278571 -0.125000 -0.325000
0.279167 -0.225000 -0.275000
0.279167 0.025000 -0.375000
0.283333 -0.075000 -0.325000
0.284375 -0.125000 -0.375000
0.285714 -0.175000 -0.325000
0.292857 -0.275000 -0.275000
0.292857 -0.175000 -0.375000
0.294444 -0.075000 -0.375000
0.296875 -0.025000 -0.375000
0.307143 0.075000 -0.575000
0.309375 -0.025000 -0.425000
0.314286 0.025000 -0.425000
0.325000 -0.350000 -0.075000
0.325000 -0.344444 -0.025000
0.325000 -0.344444 0.025000
0.325000 -0.338889 -0.125000
0.325000 -0.338889 0.075000
0.325000 -0.327778 0.175000
0.325000 -0.321875 -0.225000
0.325000 -0.307143 -0.275000
0.325000 -0.305556 0.275000
0.325000 -0.275000 -0.312500
0.325000 -0.265625 0.375000
0.325000 -0.250000 0.425000
0.325000 -0.228125 0.475000
0.325000 -0.225000 -0.333333
0.325000 -0.178125 0.575000
0.325000 -0.175000 -0.412500
0.325000 -0.125000 -0.468750
0.325000 -0.125000 0.628571
0.325000 -0.025000 0.692857
0.325000 0.025000 0.715625
0.325000 0.075000 0.727778
0.325000 0.125000 0.727778
0.325000 0.175000 0.733333
0.325000 0.225000 0.733333
0.325000 0.275000 0.727778
0.325000 0.425000 0.694444
0.325000 0.625000 0.572222
0.325000 0.644444 -0.575000
0.325000 0.671875 -0.525000
0.325000 0.675000 0.534375
0.325000 0.709375 -0.475000
0.325000 0.728125 0.475000
0.325000 0.765625 0.425000
0.325000 0.800000 0.375000
0.325000 0.838889 -0.275000
0.325000 0.877778 -0.125000
0.325000 0.883333 0.075000
0.325000 0.883333 0.125000
0.325000 0.888889 -0.075000
0.325000 0.888889 0.025000
0.328125 0.025000 -0.525000
0.328125 0.025000 -0.475000
0.328571 -0.025000 -0.475000
0.335714 0.025000 -0.575000
0.337500 -0.075000 -0.475000
0.337500 -0.025000 -0.525000
0.340000 0.775000 -0.375000
0.357143 -0.075000 -0.525000
0.370000 -0.025000 -0.575000
0.370000 0.725000 -0.425000
0.375000 -0.333333 -0.025000
0.375000 -0.322222 -0.175000
0.375000 -0.309375 0.075000
0.375000 -0.305556 0.225000
0.375000 -0.303125 -0.225000
0.375000 -0.303125 0.125000
0.375000 -0.303125 0.175000
0.375000 -0.270000 -0.325000
0.375000 -0.255556 0.375000
0.375000 -0.250000 -0.375000
0.375000 -0.225000 -0.410000
0.375000 -0.175000 -0.470000
0.375000 -0.175000 0.510000
0.375000 -0.166667 0.525000
0.375000 -0.153125 0.575000
0.375000 -0.125000 -0.520000
0.375000 -0.125000 0.603125
0.375000 -0.050000 -0.575000
0.375000 0.225000 0.716667
0.375000 0.275000 0.705556
0.375000 0.425000 0.672222
0.375000 0.475000 0.650000
0.375000 0.575000 0.584375
0.375000 0.616667 -0.575000
0.375000 0.625000 0.546875
0.375000 0.646875 -0.525000
0.375000 0.696875 0.475000
0.375000 0.788889 -0.325000
0.375000 0.833333 -0.225000
0.375000 0.850000 -0.175000
0.375000 0.855556 0.175000
0.375000 0.866667 0.125000
0.375000 0.872222 -0.075000
0.375000 0.872222 0.025000
0.381250 -0.075000 -0.575000
0.390000 0.675000 -0.475000
0.404167 0.625000 -0.525000
0.420000 -0.125000 0.575000
0.421875 0.575000 -0.575000
0.425000 -0.333333 -0.025000
0.425000 -0.327778 -0.125000
0.425000 -0.327778 -0.075000
0.425000 -0.321875 -0.175000
0.425000 -0.309375 0.075000
0.425000 -0.307143 -0.225000
0.425000 -0.296875 0.175000
0.425000 -0.294444 0.225000
0.425000 -0.290625 0.125000
0.425000 -0.290625 0.275000
0.425000 -0.284375 -0.275000
0.425000 -0.271875 0.325000
0.425000 -0.270000 -0.325000
0.425000 -0.257143 -0.375000
0.425000 -0.255556 0.375000
0.425000 -0.234375 0.425000
0.425000 -0.228571 -0.425000
0.425000 -0.200000 0.475000
0.425000 -0.175000 -0.495833
0.425000 -0.153125 0.525000
0.425000 -0.125000 -0.537500
0.425000 -0.096875 -0.575000
0.425000 -0.075000 0.600000
0.425000 0.075000 0.671875
0.425000 0.125000 0.672222
0.425000 0.225000 0.683333
0.425000 0.325000 0.672222
0.425000 0.375000 0.661111
0.425000 0.425000 0.640625
0.425000 0.675000 0.457143
0.425000 0.690625 -0.425000
0.425000 0.734375 0.375000
0.425000 0.784375 -0.275000
0.425000 0.788889 0.275000
0.425000 0.811111 0.225000
0.425000 0.827778 -0.175000
0.425000 0.827778 0.175000
0.425000 0.838889 -0.075000
0.440000 -0.025000 0.625000
0.442857 0.825000 0.025000
0.453125 0.525000 -0.575000
0.457143 0.575000 -0.525000
0.457143 0.575000 0.525000
0.457143 0.675000 0.425000
0.475000 -0.311111 -0.025000
0.475000 -0.305556 0.025000
0.475000 -0.296875 -0.175000
0.475000 -0.285714 0.075000
0.475000 -0.278125 0.275000
0.475000 -0.277778 0.225000
0.475000 -0.275000 -0.210000
0.475000 -0.272222 0.175000
0.475000 -0.266667 0.125000
0.475000 -0.262500 -0.225000
0.475000 -0.253125 -0.375000
0.475000 -0.253125 -0.275000
0.475000 -0.242857 -0.325000
0.475000 -0.225000 -0.420000
0.475000 -0.225000 0.406250
0.475000 -0.175000 -0.479167
0.475000 -0.162500 0.475000
0.475000 -0.125000 -0.521429
0.475000 -0.125000 0.512500
0.475000 -0.083333 -0.575000
0.475000 -0.025000 0.595833
0.475000 0.225000 0.650000
0.475000 0.325000 0.638889
0.475000 0.495833 -0.575000
0.475000 0.550000 0.525000
0.475000 0.625000 -0.462500
0.475000 0.684375 -0.375000
0.475000 0.721875 -0.325000
0.475000 0.753125 0.275000
0.475000 0.778125 0.225000
0.475000 0.783333 -0.225000
0.475000 0.794444 -0.175000
0.475000 0.794444 0.175000
0.475000 0.800000 0.025000
0.475000 0.800000 0.125000
0.485714 -0.075000 -0.575000
0.487500 -0.075000 0.525000
0.487500 0.075000 0.625000
0.492857 0.525000 -0.525000
0.496875 0.775000 -0.075000
0.500000 -0.225000 -0.325000
0.503125 -0.225000 -0.375000
0.507143 0.425000 0.575000
0.507143 0.625000 -0.425000
0.520833 -0.275000 -0.075000
0.521429 0.475000 -0.525000
0.525000 -0.303125 0.025000
0.525000 -0.296875 0.075000
0.525000 -0.290625 -0.025000
0.525000 -0.272222 0.125000
0.525000 -0.261111 0.175000
0.525000 -0.261111 0.275000
0.525000 -0.259375 -0.175000
0.525000 -0.259375 -0.125000
0.525000 -0.255556 0.225000
0.525000 -0.242857 -0.225000
0.525000 -0.235714 -0.275000
0.525000 -0.225000 0.368750
0.525000 -0.195833 -0.375000
0.525000 -0.187500 0.425000
0.525000 -0.175000 -0.406250
0.525000 -0.137500 -0.475000
0.525000 -0.125000 0.471875
0.525000 -0.075000 -0.529167
0.525000 -0.025000 0.545833
0.525000 0.025000 0.570833
0.525000 0.075000 0.596875
0.525000 0.125000 0.596875
0.525000 0.175000 0.605556
0.525000 0.325000 0.600000
0.525000 0.375000 0.584375
0.525000 0.420000 -0.575000
0.525000 0.575000 0.457143
0.525000 0.607143 0.425000
0.525000 0.746875 0.175000
0.525000 0.750000 -0.175000
0.525000 0.755556 -0.025000
0.528125 0.675000 0.325000
0.528125 0.725000 0.225000
0.529167 -0.025000 -0.575000
0.535714 0.625000 -0.375000
0.540625 0.725000 -0.225000
0.546875 0.525000 -0.475000
0.550000 0.375000 -0.575000
0.553125 0.725000 -0.125000
0.559375 0.425000 -0.525000
0.561111 0.025000 -0.575000
0.566667 0.275000 -0.575000
0.566667 0.325000 -0.575000
0.568750 -0.175000 -0.325000
0.571875 -0.125000 0.425000
0.571875 0.125000 -0.575000
0.571875 0.225000 -0.575000
0.571875 0.475000 -0.475000
0.575000 -0.253125 0.075000
0.575000 -0.244444 0.125000
0.575000 -0.240625 -0.075000
0.575000 -0.125000 -0.416667
0.575000 -0.080000 -0.475000
0.575000 -0.075000 0.457143
0.575000 -0.025000 -0.521429
0.575000 -0.025000 0.487500
0.575000 0.025000 0.520833
0.575000 0.470000 0.475000
0.575000 0.620833 -0.325000
0.575000 0.685714 -0.225000
0.575000 0.711111 0.025000
0.575000 0.716667 -0.025000
0.578125 0.675000 0.225000
0.578571 -0.225000 0.275000
0.580000 -0.225000 -0.125000
0.584375 0.375000 0.525000
0.584375 0.525000 -0.425000
0.584375 0.575000 0.375000
0.585714 -0.225000 0.175000
0.585714 -0.225000 0.225000
0.588889 0.025000 -0.525000
0.588889 0.075000 0.525000
0.594444 0.125000 0.525000
0.594444 0.325000 -0.525000
0.594444 0.675000 -0.175000
0.594444 0.675000 0.175000
0.595833 -0.125000 -0.375000
0.596875 -0.175000 0.325000
0.596875 -0.125000 0.375000
0.596875 0.625000 -0.275000
0.600000 -0.225000 0.125000
0.600000 0.275000 -0.525000
0.600000 0.325000 0.525000
0.600000 0.675000 0.125000
0.603125 -0.075000 0.425000
0.604167 -0.175000 -0.275000
0.605556 0.025000 0.475000
0.605556 0.125000 -0.525000
0.605556 0.175000 0.525000
0.605556 0.275000 0.525000
0.609375 -0.225000 0.025000
0.609375 0.675000 -0.125000
0.609375 0.675000 -0.075000
0.611111 -0.025000 -0.475000
0.611111 0.375000 -0.475000
0.611111 0.525000 0.375000
0.611111 0.675000 0.025000
0.611111 0.675000 0.075000
0.614286 0.475000 -0.425000
0.615625 0.075000 0.475000
0.615625 0.525000 -0.375000
0.621875 0.675000 -0.025000
0.622222 0.325000 -0.475000
0.625000 -0.204167 -0.025000
0.625000 -0.200000 -0.125000
0.625000 -0.195833 0.125000
0.625000 -0.179167 0.175000
0.625000 -0.179167 0.225000
0.625000 -0.175000 -0.212500
0.625000 -0.145833 0.275000
0.625000 -0.125000 -0.331250
0.625000 -0.075000 -0.400000
0.625000 -0.025000 0.420833
0.625000 0.125000 0.485714
0.625000 0.550000 0.325000
0.628125 -0.075000 0.375000
0.628571 -0.125000 0.325000
0.634375 -0.175000 0.075000
0.634375 0.625000 0.175000
0.637500 -0.175000 -0.175000
0.637500 -0.175000 0.025000
0.638889 -0.025000 -0.425000
0.638889 0.275000 -0.475000
0.638889 0.325000 0.475000
0.638889 0.575000 0.275000
0.640625 0.425000 0.425000
0.644444 0.075000 -0.475000
0.644444 0.475000 -0.375000
0.644444 0.475000 0.375000
0.644444 0.625000 -0.125000
0.644444 0.625000 0.125000
0.646875 0.175000 0.475000
0.650000 -0.075000 -0.375000
0.650000 0.225000 0.475000
0.650000 0.375000 -0.425000
0.650000 0.575000 -0.225000
0.650000 0.625000 0.075000
0.653125 0.125000 -0.475000
0.653125 0.175000 -0.475000
0.655556 0.325000 -0.425000
0.655556 0.625000 -0.025000
0.657143 -0.075000 0.325000
0.659375 -0.125000 -0.225000
0.661111 0.375000 0.425000
0.661111 0.475000 -0.325000
0.661111 0.525000 -0.275000
0.661111 0.575000 -0.175000
0.665625 -0.025000 -0.375000
0.666667 0.425000 -0.375000
0.666667 0.425000 0.375000
0.666667 0.475000 0.325000
0.671429 -0.125000 0.225000
0.671875 -0.075000 -0.325000
0.672222 0.325000 0.425000
0.672222 0.575000 0.175000
0.675000 -0.170833 -0.125000
0.675000 -0.142857 0.025000
0.675000 -0.128571 0.075000
0.675000 -0.110000 0.175000
0.675000 -0.107143 -0.275000
0.675000 0.025000 -0.400000
0.675000 0.125000 0.429167
0.675000 0.175000 -0.440000
0.675000 0.175000 0.437500
0.677778 0.075000 -0.425000
0.677778 0.575000 -0.075000
0.677778 0.575000 0.125000
0.678125 -0.125000 0.125000
0.678125 0.025000 0.375000
0.678571 -0.075000 0.275000
0.679167 -0.175000 -0.075000
0.684375 0.325000 -0.375000
0.684375 0.475000 -0.275000
0.690625 -0.125000 -0.175000
0.694444 -0.025000 0.325000
0.694444 0.425000 -0.325000
0.696875 0.075000 0.375000
0.700000 -0.075000 -0.275000
0.700000 -0.075000 0.225000
0.700000 0.275000 -0.375000
0.703125 0.075000 -0.375000
0.704167 -0.075000 0.175000
0.705556 0.025000 0.325000
0.705556 0.275000 0.375000
0.705556 0.375000 0.325000
0.705556 0.525000 -0.075000
0.705556 0.525000 0.125000
0.709375 -0.125000 -0.125000
0.711111 -0.025000 0.275000
0.711111 0.125000 -0.375000
0.711111 0.225000 -0.375000
0.711111 0.375000 -0.325000
0.711111 0.475000 0.225000
0.716667 0.175000 0.375000
0.716667 0.225000 0.375000
0.722222 -0.025000 -0.225000
0.722222 0.075000 0.325000
0.722222 0.375000 0.275000
0.722222 0.475000 -0.175000
0.722222 0.475000 0.175000
0.725000 -0.129167 -0.075000
0.725000 -0.093750 -0.125000
0.725000 -0.092857 0.025000
0.725000 -0.078571 0.075000
0.725000 -0.070000 0.125000
0.725000 -0.068750 -0.175000
0.725000 -0.016667 0.225000
0.725000 0.025000 -0.318750
0.725000 0.075000 -0.331250
0.725000 0.275000 0.318750
0.725000 0.325000 0.300000
0.727778 -0.025000 -0.275000
0.727778 0.125000 0.325000
0.727778 0.175000 -0.325000
0.727778 0.175000 0.325000
0.727778 0.225000 0.325000
0.727778 0.275000 -0.325000
0.727778 0.375000 -0.275000
0.727778 0.425000 0.225000
0.727778 0.475000 -0.125000
0.727778 0.475000 -0.075000
0.727778 0.475000 0.075000
0.727778 0.475000 0.125000
0.733333 0.225000 -0.325000
0.734375 0.075000 0.275000
0.737500 -0.025000 0.175000
0.738889 0.325000 -0.275000
0.738889 0.425000 0.175000
0.740625 0.425000 0.125000
0.742857 0.025000 0.225000
0.744444 0.375000 -0.225000
0.746875 0.025000 -0.275000
0.746875 0.275000 0.275000
0.750000 0.025000 -0.225000
0.750000 0.075000 0.225000
0.750000 0.125000 -0.275000
0.750000 0.175000 -0.275000
0.750000 0.425000 0.075000
0.753125 0.275000 -0.275000
0.754167 -0.075000 -0.025000
0.764286 0.075000 -0.225000
0.764286 0.425000 -0.075000
0.771429 0.375000 -0.175000
0.771429 0.375000 0.175000
0.775000 -0.057143 0.025000
0.775000 -0.056250 -0.075000
0.775000 -0.050000 -0.025000
0.775000 -0.046875 0.075000
0.775000 -0.025000 -0.116667
0.775000 -0.025000 0.118750
0.775000 -0.020000 -0.125000
0.775000 -0.010000 -0.175000
0.775000 0.012500 0.175000
0.775000 0.025000 -0.200000
0.775000 0.025000 0.187500
0.775000 0.075000 -0.212500
0.775000 0.075000 0.200000
0.775000 0.110000 0.225000
0.775000 0.125000 -0.220833
0.775000 0.125000 0.240000
0.775000 0.137500 -0.225000
0.775000 0.175000 -0.240000
0.775000 0.175000 0.256250
0.775000 0.225000 -0.256250
0.775000 0.225000 0.256250
0.775000 0.275000 -0.240000
0.775000 0.275000 0.230000
0.775000 0.281250 0.225000
0.775000 0.293750 -0.225000
0.775000 0.312500 0.125000
0.775000 0.318750 0.175000
0.775000 0.325000 -0.193750
0.775000 0.325000 0.118750
0.775000 0.362500 -0.175000
0.775000 0.375000 -0.162500
0.775000 0.375000 0.112500
0.775000 0.390000 -0.125000
0.775000 0.410000 0.025000
0.775000 0.414286 -0.075000
0.775000 0.414286 -0.025000
3 407 404 337
3 449 478 407
3 407 478 477
3 407 477 404
3 478 502 477
3 477 502 530
3 477 530 529
3 1302 1283 1265
3 1302 1328 1327
3 1302 1327 1283
3 1328 1370 1327
3 1327 1370 1368
3 1370 1386 1368
3 1368 1386 1414
3 307 338 295
3 295 338 337
3 338 407 337
3 502 532 530
3 530 532 550
3 1266 1285 1263
3 1263 1285 1302
3 1263 1302 1265
3 1386 1430 1414
3 1414 1430 1451
3 291 295 230
3 291 307 295
3 552 579 532
3 532 579 577
3 532 577 550
3 1261 1266 1258
3 1258 1266 1263
3 1430 1437 1451
3 1437 1467 1451
3 230 249 291
3 579 636 635
3 579 635 577
3 1437 1442 1467
3 1467 1442 1484
3 250 249 224
3 224 249 230
3 636 707 635
3 635 707 706
3 707 768 706
3 768 857 813
3 900 940 939
3 940 984 939
3 939 984 985
3 1159 1169 1189
3 1169 1215 1189
3 1189 1215 1261
3 768 707 857
3 984 1028 985
3 985 1028 1027
3 1028 1078 1027
3 1027 1078 1077
3 1078 1133 1077
3 1077 1133 1132
3 1133 1169 1132
3 1132 1169 1159
3 1442 1443 1484
3 1484 1443 1478
3 250 224 234
3 250 234 300
3 1443 1438 1478
3 300 234 301
3 1438 1439 1478
3 1478 1439 1470
3 301 234 247
3 308 301 247
3 1434 1470 1439
3 308 247 356
3 356 247 305
3 1434 1422 1436
3 1434 1436 1470
3 428 356 305
3 1374 1396 1422
3 1422 1396 1436
3 428 305 444
3 428 444 448
3 1347 1389 1374
3 1374 1389 1396
3 486 448 444
3 486 444 501
3 1347 1306 1348
3 1347 1348 1389
3 501 444 487
3 539 501 487
3 539 487 587
3 1306 1291 1304
3 1306 1304 1348
3 587 487 588
3 587 588 644
3 644 588 664
3 1196 1246 1245
3 1245 1246 1291
3 1291 1246 1293
3 1291 1293 1304
3 664 588 646
3 716 664 646
3 716 646 718
3 716 718 774
3 1141 1142 1196
3 1196 1142 1246
3 774 718 776
3 774 776 819
3 863 819 776
3 863 776 909
3 909 776 947
3 909 947 946
3 946 947 991
3 991 947 1036
3 1036 947 1038
3 1036 1038 1141
3 1141 1038 1142
3 381 475 472
3 475 527 472
3 404 381 367
3 404 477 475
3 404 475 381
3 477 529 475
3 475 529 527
3 527 529 603
3 1283 1279 1234
3 1283 1327 1325
3 1283 1325 1279
3 1327 1368 1325
3 1325 1368 1366
3 1366 1368 1412
3 337 367 191
3 337 404 367
3 529 530 603
3 1265 1283 1262
3 1262 1283 1234
3 1368 1414 1412
3 1412 1414 1449
3 295 337 191
3 550 553 530
3 530 553 603
3 1263 1265 1260
3 1260 1265 1262
3 1414 1451 1449
3 1449 1451 1490
3 230 295 191
3 550 577 553
3 553 577 611
3 1258 1263 1259
3 1259 1263 1260
3 1451 1467 1490
3 577 635 633
3 577 633 611
3 635 705 633
3 1261 1258 1188
3 1188 1258 1259
3 1484 1523 1467
3 1467 1523 1490
3 224 230 164
3 164 230 173
3 635 706 705
3 706 768 705
3 705 768 767
3 768 813 767
3 813 857 897
3 857 900 897
3 900 939 897
3 897 939 938
3 939 985 938
3 938 985 982
3 985 1027 982
3 982 1027 1025
3 1027 1076 1025
3 1076 1132 1131
3 1159 1189 1132
3 1132 1189 1188
3 1132 1188 1131
3 1189 1261 1188
3 1523 1484 1534
3 174 224 164
3 1027 1077 1076
3 1077 1132 1076
3 1534 1484 1535
3 224 174 166
3 1484 1478 1535
3 1478 1519 1535
3 224 166 177
3 177 234 224
3 1470 1499 1478
3 1478 1499 1519
3 247 234 177
3 1470 1491 1499
3 247 293 305
3 1470 1436 1491
3 1436 1396 1444
3 305 293 312
3 444 305 312
3 1389 1433 1396
3 1396 1433 1444
3 444 312 430
3 1389 1348 1376
3 1389 1376 1433
3 444 430 487
3 1348 1304 1376
3 487 430 488
3 487 488 541
3 487 541 588
3 1293 1246 1303
3 1293 1303 1304
3 1304 1303 1337
3 1304 1337 1376
3 588 541 647
3 646 588 647
3 1142 1248 1246
3 1246 1248 1303
3 718 646 647
3 718 647 720
3 718 720 776
3 776 720 778
3 776 911 947
3 947 994 1038
3 1142 1038 1086
3 1142 1086 1143
3 1142 1143 1248
3 776 778 821
3 776 821 911
3 1038 994 1086
3 472 468 399
3 472 526 468
3 370 381 399
3 381 472 399
3 472 527 526
3 526 527 571
3 1279 1278 1233
3 1279 1325 1323
3 1279 1323 1278
3 1325 1366 1323
3 1323 1366 1364
3 1364 1366 1411
3 367 370 306
3 367 381 370
3 603 573 527
3 527 573 571
3 571 573 605
3 1234 1233 1209
3 1234 1279 1233
3 1366 1412 1411
3 1411 1412 1448
3 258 257 216
3 191 367 258
3 258 367 257
3 257 367 306
3 573 603 606
3 573 606 605
3 1234 1209 1262
3 1262 1209 1213
3 1412 1449 1448
3 191 258 216
3 603 553 604
3 603 604 606
3 1262 1213 1260
3 1260 1213 1216
3 1449 1490 1518
3 1449 1518 1448
3 230 191 124
3 124 191 216
3 553 611 604
3 1260 1216 1259
3 1259 1216 1217
3 1490 1557 1518
3 173 124 117
3 173 230 124
3 633 705 611
3 611 705 704
3 1188 1259 1186
3 1186 1259 1217
3 1523 1561 1490
3 1490 1561 1557
3 173 117 164
3 705 767 704
3 704 767 766
3 767 813 766
3 766 813 812
3 813 897 812
3 812 897 856
3 856 897 898
3 897 938 898
3 938 982 898
3 898 982 983
3 982 1025 983
3 983 1025 1026
3 1025 1076 1026
3 1026 1076 1075
3 1076 1131 1075
3 1075 1131 1130
3 1131 1188 1130
3 1130 1188 1186
3 1523 1534 1561
3 164 117 140
3 174 164 140
3 1535 1559 1534
3 166 174 140
3 1519 1576 1535
3 1535 1576 1559
3 177 166 142
3 142 166 77
3 1499 1536 1519
3 1519 1536 1576
3 177 142 160
3 177 160 247
3 1499 1491 1536
3 1536 1491 1531
3 293 247 226
3 226 247 160
3 1436 1495 1491
3 1491 1495 1531
3 1436 1444 1495
3 293 226 248
3 312 293 248
3 1433 1463 1444
3 1444 1463 1495
3 312 248 430
3 430 248 283
3 1376 1394 1433
3 1433 1394 1463
3 430 283 488
3 1376 1337 1394
3 488 283 489
3 541 488 489
3 541 489 542
3 541 542 647
3 1303 1248 1267
3 1303 1267 1337
3 647 542 590
3 647 590 648
3 1248 1143 1267
3 647 648 720
3 720 648 722
3 720 722 778
3 821 778 823
3 821 823 911
3 947 911 949
3 947 949 994
3 1086 994 1087
3 1086 1087 1143
3 399 468 464
3 399 464 397
3 468 526 464
3 464 526 522
3 526 570 522
3 1278 1323 1320
3 1278 1320 1277
3 1323 1364 1320
3 1320 1364 1361
3 1364 1392 1361
3 370 399 330
3 330 399 397
3 526 571 570
3 570 571 609
3 1233 1278 1212
3 1212 1278 1277
3 1364 1411 1392
3 1392 1411 1409
3 257 255 185
3 306 370 257
3 257 370 330
3 257 330 255
3 605 614 571
3 571 614 609
3 1209 1233 1212
3 1411 1448 1409
3 216 257 185
3 606 614 605
3 1448 1508 1473
3 1473 1508 1529
3 604 610 606
3 606 610 614
3 1216 1213 1214
3 1448 1518 1508
3 1508 1518 1544
3 1508 1544 1529
3 124 216 138
3 604 611 663
3 604 663 610
3 1217 1216 1207
3 1207 1216 1214
3 1518 1557 1544
3 117 124 89
3 611 704 703
3 611 703 663
3 703 704 765
3 1129 1186 1207
3 1186 1217 1207
3 1557 1561 1577
3 704 766 765
3 766 812 765
3 856 898 895
3 898 983 895
3 895 983 981
3 983 1026 981
3 981 1026 1024
3 1026 1075 1024
3 1024 1075 1074
3 1075 1130 1074
3 1074 1130 1129
3 1130 1186 1129
3 1534 1586 1561
3 1561 1586 1577
3 117 89 140
3 1559 1586 1534
3 166 140 100
3 1559 1587 1586
3 77 166 100
3 1559 1576 1587
3 142 77 78
3 1536 1568 1576
3 160 142 102
3 102 142 78
3 1536 1531 1568
3 226 160 146
3 146 160 102
3 1495 1545 1531
3 226 146 175
3 1495 1524 1545
3 248 226 213
3 213 226 175
3 1463 1497 1495
3 1495 1497 1524
3 248 213 283
3 1394 1431 1463
3 1463 1431 1455
3 1337 1377 1394
3 1394 1377 1431
3 489 283 492
3 1337 1267 1378
3 1337 1378 1377
3 542 489 492
3 542 492 543
3 542 543 590
3 1143 1264 1267
3 1267 1264 1295
3 1267 1295 1378
3 590 543 593
3 648 590 593
3 648 593 649
3 648 649 722
3 1087 1145 1143
3 1143 1145 1264
3 823 778 722
3 823 722 824
3 823 824 911
3 949 911 913
3 994 949 996
3 994 996 1087
3 1087 996 1088
3 1087 1088 1145
3 911 824 913
3 397 464 395
3 395 464 461
3 464 522 461
3 461 522 518
3 522 570 518
3 518 570 569
3 570 607 569
3 1231 1277 1275
3 1277 1320 1275
3 1275 1320 1319
3 1320 1361 1319
3 1319 1361 1363
3 1361 1392 1363
3 1363 1392 1391
3 235 330 329
3 330 397 329
3 329 397 395
3 570 609 612
3 570 612 607
3 1210 1212 1231
3 1212 1277 1231
3 1392 1409 1391
3 1391 1409 1440
3 185 183 155
3 185 255 235
3 185 235 183
3 255 330 235
3 609 614 657
3 609 657 612
3 1209 1212 1205
3 1205 1212 1210
3 1409 1448 1440
3 1448 1473 1440
3 1440 1473 1507
3 216 185 123
3 123 185 155
3 614 615 657
3 1213 1209 1208
3 1208 1209 1205
3 1473 1529 1507
3 1507 1529 1549
3 138 123 104
3 138 216 123
3 610 613 614
3 614 613 615
3 1214 1213 1184
3 1184 1213 1208
3 1529 1544 1549
3 124 138 75
3 75 138 104
3 610 663 613
3 613 663 672
3 1207 1184 1127
3 1207 1214 1184
3 1544 1557 1604
3 1544 1604 1549
3 89 124 58
3 58 124 75
3 663 703 672
3 703 765 672
3 672 765 764
3 1073 1129 1127
3 1129 1207 1127
3 1577 1605 1557
3 1557 1605 1604
3 59 89 58
3 765 812 764
3 764 812 811
3 812 856 811
3 811 856 855
3 856 895 855
3 855 895 892
3 892 895 935
3 895 981 935
3 981 1024 935
3 935 1024 1023
3 1024 1074 1023
3 1023 1074 1073
3 1074 1129 1073
3 1586 1605 1577
3 140 89 76
3 76 89 59
3 1586 1610 1605
3 100 140 76
3 1587 1620 1586
3 1586 1620 1610
3 77 100 76
3 1576 1613 1587
3 1587 1613 1620
3 1568 1588 1576
3 1576 1588 1613
3 1531 1588 1568
3 146 102 108
3 1531 1545 1572
3 1531 1572 1588
3 175 146 148
3 148 146 108
3 1524 1541 1545
3 1545 1541 1572
3 175 148 213
3 213 148 161
3 1524 1497 1541
3 213 161 215
3 283 213 215
3 1463 1455 1497
3 283 215 246
3 283 246 431
3 283 431 492
3 1377 1378 1431
3 492 431 494
3 492 494 543
3 543 494 544
3 543 544 593
3 649 593 650
3 1264 1145 1252
3 1264 1252 1295
3 649 650 722
3 722 826 824
3 1088 996 1090
3 1088 1090 1145
3 1145 1090 1147
3 1145 1147 1252
3 824 826 913
3 913 826 915
3 913 915 949
3 996 949 951
3 996 951 1090
3 459 513 512
3 513 563 512
3 1227 1225 1211
3 1227 1275 1225
3 1225 1275 1272
3 1275 1319 1272
3 1272 1319 1317
3 324 395 393
3 395 461 393
3 393 461 459
3 461 518 459
3 459 518 513
3 518 569 513
3 513 569 563
3 569 607 563
3 563 607 658
3 1206 1231 1227
3 1206 1227 1211
3 1231 1275 1227
3 1319 1363 1362
3 1319 1362 1317
3 1363 1391 1362
3 1362 1391 1407
3 179 235 251
3 235 329 251
3 251 329 324
3 329 395 324
3 612 661 607
3 607 661 658
3 1210 1206 1165
3 1210 1231 1206
3 1391 1440 1407
3 1407 1440 1482
3 155 183 154
3 154 183 179
3 183 235 179
3 612 657 661
3 661 657 667
3 1210 1165 1205
3 1205 1165 1166
3 1440 1507 1482
3 1482 1507 1556
3 123 155 122
3 122 155 154
3 657 615 669
3 657 669 667
3 1205 1166 1208
3 1507 1549 1556
3 1549 1574 1556
3 104 123 98
3 98 123 122
3 615 613 669
3 669 613 674
3 1184 1208 1166
3 1549 1608 1574
3 75 104 98
3 75 98 53
3 613 672 701
3 613 701 674
3 701 763 674
3 1549 1604 1608
3 1608 1604 1628
3 58 75 37
3 37 75 53
3 672 764 701
3 701 764 763
3 764 810 763
3 892 935 931
3 931 1023 1022
3 1023 1073 1022
3 1022 1073 1072
3 1073 1127 1072
3 1604 1605 1632
3 1604 1632 1628
3 59 58 37
3 764 811 810
3 811 855 810
3 935 1023 931
3 59 37 76
3 76 37 15
3 1610 1633 1605
3 1605 1633 1632
3 76 15 43
3 1620 1660 1610
3 1610 1660 1633
3 76 43 77
3 77 43 51
3 1613 1635 1620
3 1620 1635 1660
3 77 51 78
3 1588 1623 1613
3 1613 1623 1635
3 78 51 85
3 102 78 85
3 1623 1588 1614
3 108 102 85
3 1588 1572 1614
3 108 125 148
3 1541 1569 1572
3 161 148 143
3 143 148 125
3 1497 1542 1541
3 1541 1542 1569
3 161 143 215
3 215 143 221
3 1455 1542 1497
3 246 215 221
3 1455 1476 1542
3 246 221 285
3 246 285 433
3 1455 1431 1476
3 246 433 431
3 1431 1378 1432
3 1431 1432 1476
3 431 433 494
3 1295 1339 1378
3 494 433 497
3 494 497 544
3 593 544 595
3 593 595 650
3 650 595 722
3 722 595 725
3 722 725 826
3 826 725 828
3 826 828 866
3 826 866 915
3 915 866 949
3 949 866 951
3 1090 1040 1091
3 1090 1091 1147
3 459 512 457
3 457 512 455
3 512 563 455
3 455 563 561
3 1211 1225 1168
3 1168 1225 1224
3 1225 1272 1224
3 1272 1317 1312
3 1312 1317 1360
3 324 393 392
3 393 459 392
3 563 658 561
3 561 658 662
3 1206 1168 1154
3 1206 1211 1168
3 1317 1362 1360
3 1362 1407 1360
3 1360 1407 1406
3 179 251 181
3 181 251 252
3 251 324 252
3 661 668 658
3 658 668 662
3 1165 1206 1163
3 1163 1206 1154
3 1407 1482 1406
3 1406 1482 1505
3 154 179 163
3 163 179 181
3 667 671 661
3 661 671 668
3 1166 1165 1164
3 1164 1165 1163
3 1482 1556 1505
3 1505 1556 1539
3 122 154 163
3 669 673 667
3 667 673 671
3 1162 1166 1164
3 1556 1574 1539
3 1539 1574 1592
3 98 122 112
3 674 681 669
3 669 681 673
3 1184 1166 1157
3 1157 1166 1162
3 1574 1608 1592
3 53 98 50
3 50 98 112
3 674 763 681
3 681 763 746
3 1071 1127 1157
3 1127 1184 1157
3 1628 1630 1608
3 1608 1630 1592
3 37 53 35
3 35 53 50
3 810 855 853
3 855 892 853
3 853 892 931
3 1072 1127 1071
3 1632 1637 1628
3 1628 1637 1630
3 12 37 35
3 12 35 9
3 1632 1655 1637
3 15 37 12
3 1633 1658 1632
3 1632 1658 1657
3 1632 1657 1655
3 43 15 17
3 1633 1660 1658
3 51 43 38
3 38 43 17
3 38 17 19
3 1635 1662 1660
3 45 51 38
3 1623 1668 1635
3 1635 1668 1665
3 1635 1665 1662
3 51 45 85
3 85 45 86
3 1614 1627 1623
3 1623 1627 1668
3 108 85 86
3 1572 1627 1614
3 125 108 86
3 1572 1569 1627
3 125 134 143
3 1542 1543 1569
3 221 143 212
3 212 143 134
3 1542 1532 1543
3 1476 1532 1542
3 221 212 285
3 1476 1456 1532
3 433 285 362
3 1476 1432 1456
3 433 362 435
3 1339 1381 1378
3 1378 1381 1432
3 433 435 497
3 1252 1296 1295
3 1295 1296 1339
3 1339 1296 1381
3 544 497 595
3 595 497 597
3 595 597 726
3 1252 1297 1296
3 595 726 725
3 725 726 780
3 725 780 828
3 866 828 869
3 866 869 951
3 951 869 954
3 951 954 1090
3 1090 954 1040
3 1091 1040 1147
3 1147 1297 1252
3 459 457 387
3 387 457 455
3 455 561 508
3 508 561 557
3 557 561 660
3 1153 1168 1176
3 1168 1224 1176
3 1176 1224 1172
3 1224 1272 1269
3 1272 1312 1269
3 1269 1312 1310
3 1312 1360 1310
3 1310 1360 1357
3 1310 1357 1353
3 1357 1403 1353
3 296 324 321
3 324 392 321
3 321 392 387
3 392 459 387
3 561 662 660
3 660 662 682
3 1154 1168 1153
3 1360 1406 1357
3 1357 1406 1403
3 181 252 220
3 220 252 296
3 252 324 296
3 668 730 662
3 662 730 682
3 1163 1154 1155
3 1406 1505 1403
3 1403 1505 1516
3 163 181 184
3 184 181 220
3 671 731 668
3 668 731 730
3 1164 1163 1155
3 1505 1539 1570
3 1505 1570 1516
3 122 163 170
3 170 163 184
3 673 684 671
3 671 684 731
3 1162 1164 1152
3 1152 1164 1155
3 1539 1592 1570
3 1570 1592 1602
3 112 122 145
3 145 122 170
3 673 681 684
3 681 736 684
3 1157 1162 1106
3 1106 1162 1152
3 1592 1648 1602
3 50 112 69
3 69 112 145
3 681 746 736
3 1071 1069 1021
3 1071 1157 1106
3 1071 1106 1069
3 1592 1630 1650
3 1592 1650 1648
3 35 50 2
3 2 50 69
3 2 69 0
3 763 810 746
3 746 810 808
3 810 853 808
3 853 931 808
3 808 931 980
3 931 1022 980
3 1022 1072 980
3 980 1072 1021
3 1072 1071 1021
3 1637 1652 1630
3 1630 1652 1650
3 9 35 2
3 1637 1655 1652
3 19 21 38
3 45 38 40
3 40 38 21
3 86 45 55
3 55 45 40
3 1627 1639 1668
3 1668 1639 1670
3 86 55 66
3 125 86 97
3 97 86 66
3 1569 1595 1627
3 1627 1595 1639
3 125 97 134
3 134 97 144
3 1569 1543 1595
3 212 134 144
3 212 144 176
3 285 212 231
3 231 212 176
3 1456 1471 1532
3 1532 1471 1543
3 285 231 362
3 362 231 364
3 1432 1426 1456
3 1456 1426 1471
3 362 364 435
3 1381 1382 1432
3 1432 1382 1426
3 1296 1342 1381
3 1381 1342 1382
3 497 435 498
3 497 498 546
3 497 546 597
3 597 546 599
3 597 599 726
3 1296 1297 1342
3 726 599 728
3 726 728 780
3 780 728 653
3 1147 1149 1297
3 780 653 781
3 828 780 781
3 828 781 829
3 828 829 869
3 1040 954 1042
3 1040 1042 1147
3 1147 1042 1149
3 1172 1224 1221
3 1224 1269 1221
3 1269 1310 1221
3 1221 1310 1308
3 387 455 456
3 387 456 391
3 455 508 456
3 456 508 511
3 508 557 511
3 511 557 558
3 557 660 558
3 558 660 622
3 622 660 675
3 1153 1176 1110
3 1110 1176 1172
3 1310 1353 1308
3 1353 1403 1404
3 296 321 315
3 315 321 327
3 321 387 327
3 327 387 391
3 682 678 660
3 660 678 675
3 1154 1153 1123
3 1123 1153 1110
3 1404 1403 1461
3 220 296 240
3 240 296 315
3 678 682 683
3 682 730 683
3 1155 1154 1123
3 1403 1516 1461
3 1461 1516 1501
3 1501 1516 1552
3 184 220 240
3 184 240 228
3 683 731 680
3 730 731 683
3 1151 1155 1123
3 1516 1570 1552
3 1552 1570 1584
3 170 184 188
3 684 685 680
3 684 680 731
3 1152 1155 1111
3 1111 1155 1151
3 1570 1602 1598
3 1570 1598 1584
3 145 170 152
3 152 170 188
3 685 684 729
3 684 736 729
3 1106 1152 1102
3 1102 1152 1111
3 1602 1648 1647
3 1602 1647 1598
3 69 145 127
3 69 127 70
3 127 145 152
3 746 747 736
3 736 747 729
3 1021 1069 1020
3 1020 1069 1068
3 1069 1106 1068
3 1068 1106 1102
3 0 69 3
3 3 69 70
3 746 808 747
3 747 808 809
3 809 808 891
3 808 980 891
3 891 980 932
3 932 980 979
3 980 1021 979
3 979 1021 1020
3 21 23 40
3 55 40 23
3 1639 1671 1670
3 1639 1673 1671
3 97 66 87
3 1639 1595 1616
3 1639 1616 1673
3 144 97 87
3 1543 1616 1595
3 144 87 135
3 176 144 135
3 1543 1526 1616
3 1471 1488 1543
3 1543 1488 1526
3 231 289 364
3 1426 1435 1471
3 1471 1435 1488
3 364 289 365
3 364 365 435
3 435 365 436
3 435 436 498
3 1342 1344 1382
3 1342 1297 1344
3 728 599 653
3 1297 1149 1150
3 1297 1150 1203
3 1297 1203 1253
3 829 781 831
3 829 831 869
3 954 955 1042
3 1042 955 1043
3 1042 1043 1149
3 1149 1043 1095
3 1149 1095 1150
3 1172 1221 1171
3 1171 1221 1218
3 1221 1308 1218
3 1218 1308 1309
3 391 456 460
3 456 511 460
3 460 511 514
3 511 558 514
3 514 558 560
3 558 622 560
3 560 622 624
3 622 675 624
3 624 675 665
3 1110 1172 1109
3 1109 1172 1171
3 1308 1353 1309
3 1309 1353 1351
3 1353 1404 1351
3 1351 1404 1395
3 327 391 396
3 396 391 460
3 678 679 675
3 675 679 665
3 1123 1110 1105
3 1105 1110 1109
3 1404 1461 1395
3 1395 1461 1447
3 240 315 242
3 242 315 327
3 683 732 678
3 678 732 679
3 1100 1123 1105
3 1461 1501 1447
3 1501 1552 1567
3 228 240 237
3 237 240 242
3 680 732 683
3 1123 1100 1151
3 1552 1584 1567
3 1567 1584 1597
3 184 228 188
3 188 228 237
3 188 237 229
3 685 729 680
3 680 729 732
3 732 729 737
3 1111 1151 1103
3 1584 1598 1597
3 1597 1598 1642
3 152 188 172
3 188 229 172
3 1102 1111 1066
3 1066 1111 1103
3 1647 1645 1598
3 1598 1645 1642
3 70 127 106
3 127 152 106
3 106 152 172
3 1020 1019 978
3 1020 1068 1066
3 1020 1066 1019
3 1068 1102 1066
3 3 70 72
3 72 70 106
3 747 809 807
3 807 809 852
3 809 891 852
3 852 891 893
3 891 932 893
3 893 932 933
3 932 979 933
3 933 979 978
3 979 1020 978
3 6 3 72
3 201 139 200
3 201 200 266
3 139 201 141
3 201 266 269
3 201 204 141
3 141 204 206
3 201 269 204
3 204 269 271
3 204 271 206
3 206 271 273
3 271 349 273
3 421 276 353
3 421 353 420
3 55 23 56
3 56 23 24
3 56 24 26
3 421 423 276
3 66 55 49
3 49 55 56
3 1673 1638 1675
3 66 49 61
3 66 61 87
3 1616 1617 1673
3 1673 1617 1638
3 92 87 61
3 87 92 135
3 1616 1562 1582
3 135 92 162
3 176 135 162
3 1616 1526 1562
3 176 162 219
3 176 219 231
3 1488 1489 1526
3 231 219 289
3 289 219 290
3 1435 1489 1488
3 289 290 365
3 365 290 436
3 1382 1390 1426
3 1426 1390 1435
3 1435 1390 1489
3 498 436 499
3 498 499 546
3 546 499 547
3 546 547 600
3 1253 1256 1297
3 1297 1256 1300
3 1297 1300 1344
3 546 600 599
3 599 600 653
3 653 655 783
3 653 783 781
3 1253 1203 1256
3 781 783 831
3 954 869 832
3 954 832 955
3 1095 1043 1096
3 1095 1096 1150
3 1150 1096 1203
3 1171 1218 1167
3 1167 1218 1219
3 1219 1218 1268
3 1218 1309 1268
3 1268 1309 1307
3 514 560 567
3 560 624 567
3 1109 1171 1118
3 1118 1171 1167
3 1309 1351 1307
3 1351 1395 1399
3 396 460 470
3 460 514 470
3 470 514 523
3 470 523 505
3 523 514 567
3 567 624 629
3 679 666 665
3 665 666 629
3 665 629 624
3 1105 1109 1099
3 1395 1447 1399
3 1399 1447 1500
3 242 327 254
3 254 327 403
3 403 327 396
3 396 470 403
3 403 470 474
3 470 505 474
3 732 677 679
3 679 677 666
3 1100 1105 1099
3 1447 1501 1500
3 1501 1567 1500
3 237 242 254
3 254 403 333
3 333 403 313
3 677 732 733
3 1151 1100 1064
3 229 237 259
3 259 237 254
3 254 333 259
3 259 333 313
3 737 738 732
3 732 738 733
3 1103 1151 1065
3 1065 1151 1064
3 1642 1636 1597
3 172 229 192
3 192 229 259
3 192 259 299
3 259 313 299
3 729 742 737
3 737 742 738
3 1049 1066 1065
3 1066 1103 1065
3 1636 1642 1643
3 106 172 192
3 192 299 194
3 194 299 245
3 729 747 742
3 742 747 806
3 978 1019 1001
3 1001 1019 1049
3 1019 1066 1049
3 72 106 192
3 72 192 129
3 192 194 129
3 129 194 197
3 194 245 197
3 197 245 264
3 341 264 340
3 341 340 373
3 747 807 806
3 807 852 806
3 806 852 854
3 852 893 854
3 893 933 936
3 933 978 936
3 936 978 1001
3 936 1001 956
3 6 72 10
3 10 72 74
3 72 129 74
3 74 129 132
3 74 132 99
3 139 132 200
3 200 132 129
3 200 129 197
3 200 197 266
3 266 197 264
3 264 341 266
3 266 341 343
3 341 373 343
3 343 373 411
3 411 373 453
3 893 899 854
3 893 936 899
3 899 936 937
3 936 956 937
3 132 141 99
3 99 141 107
3 139 141 132
3 266 343 269
3 269 343 346
3 343 411 346
3 346 411 441
3 411 453 441
3 141 137 107
3 206 137 141
3 271 269 349
3 349 269 346
3 346 441 349
3 349 441 413
3 413 441 451
3 137 206 207
3 137 207 158
3 206 273 207
3 207 273 274
3 273 349 274
3 274 349 351
3 349 413 351
3 351 413 416
3 351 416 374
3 413 451 416
3 207 208 158
3 207 274 208
3 208 274 276
3 208 276 236
3 353 276 274
3 353 274 351
3 353 351 420
3 420 351 374
3 420 374 417
3 420 417 421
3 421 417 452
3 26 27 56
3 56 27 46
3 276 280 236
3 276 423 280
3 280 423 425
3 423 421 425
3 425 421 452
3 49 56 48
3 48 56 46
3 1675 1638 1676
3 61 49 62
3 62 49 48
3 61 62 92
3 92 62 93
3 1616 1582 1617
3 119 92 93
3 1562 1563 1582
3 92 119 162
3 1526 1537 1562
3 1489 1498 1526
3 1526 1498 1537
3 290 219 294
3 1489 1458 1498
3 290 294 436
3 1390 1384 1427
3 1390 1427 1489
3 1489 1427 1458
3 436 294 437
3 436 437 499
3 1344 1346 1382
3 1382 1346 1390
3 499 437 547
3 547 548 600
3 600 548 601
3 600 601 653
3 653 601 655
3 831 783 784
3 831 784 869
3 869 784 832
3 955 1097 1043
3 1043 1097 1096
3 1096 1097 1203
3 1167 1219 1173
3 1173 1219 1220
3 1219 1268 1220
3 1109 1118 1098
3 1098 1118 1117
3 1118 1167 1117
3 1117 1167 1173
3 1307 1351 1352
3 1351 1399 1352
3 1352 1399 1397
3 505 523 503
3 503 523 521
3 523 567 521
3 521 567 568
3 567 629 568
3 568 629 628
3 629 666 628
3 628 666 695
3 1099 1109 1098
3 1399 1500 1397
3 1397 1500 1487
3 401 474 473
3 401 473 385
3 474 505 473
3 473 505 503
3 677 739 666
3 666 739 695
3 1100 1099 1053
3 1487 1500 1517
3 1500 1567 1517
3 313 403 377
3 377 403 401
3 377 401 385
3 403 474 401
3 677 733 739
3 739 733 743
3 1100 1053 1064
3 1517 1567 1553
3 1567 1597 1553
3 320 313 377
3 738 743 733
3 1553 1597 1599
3 1597 1636 1599
3 299 313 317
3 317 313 320
3 742 760 738
3 738 760 743
3 1049 1065 1045
3 1636 1643 1599
3 1599 1643 1641
3 245 299 317
3 245 317 318
3 742 806 760
3 1001 1049 977
3 977 1049 1045
3 264 245 340
3 340 245 318
3 340 318 373
3 373 318 378
3 806 854 851
3 851 854 872
3 956 1001 934
3 934 1001 977
3 10 74 8
3 8 74 82
3 74 99 82
3 373 378 410
3 373 410 453
3 453 410 445
3 854 899 872
3 872 899 896
3 899 937 896
3 896 937 934
3 937 956 934
3 107 121 99
3 99 121 82
3 441 453 440
3 440 453 445
3 107 137 121
3 121 137 150
3 451 441 446
3 446 441 440
3 158 214 137
3 137 214 150
3 374 416 417
3 416 451 417
3 417 451 446
3 417 446 439
3 158 208 214
3 208 236 214
3 214 236 239
3 452 417 439
3 452 439 422
3 27 29 46
3 236 280 239
3 239 280 279
3 279 280 425
3 425 452 424
3 424 452 422
3 48 46 41
3 41 46 29
3 41 29 31
3 1638 1674 1676
3 62 48 41
3 1617 1618 1638
3 1638 1618 1674
3 62 41 81
3 62 81 93
3 1617 1582 1618
3 119 93 111
3 111 93 81
3 119 111 162
3 1537 1533 1562
3 1562 1533 1563
3 162 111 219
3 219 111 167
3 219 167 288
3 1498 1493 1537
3 1537 1493 1533
3 219 288 294
3 294 288 302
3 1458 1457 1498
3 1498 1457 1493
3 294 302 438
3 1458 1427 1457
3 294 438 437
3 437 438 500
3 1390 1346 1384
3 437 500 547
3 547 500 548
3 1256 1301 1300
3 1300 1301 1344
3 1344 1301 1346
3 655 601 656
3 1256 1203 1257
3 1256 1257 1301
3 655 656 783
3 783 656 784
3 832 1097 955
3 1116 1173 1174
3 1173 1220 1174
3 1174 1220 1222
3 1220 1268 1222
3 1098 1117 1116
3 1117 1173 1116
3 1222 1268 1270
3 1268 1307 1270
3 1270 1307 1311
3 1307 1352 1311
3 1311 1352 1354
3 1352 1397 1354
3 1354 1397 1398
3 1398 1397 1445
3 503 467 400
3 503 521 516
3 503 516 467
3 521 568 516
3 516 568 566
3 568 628 566
3 566 628 626
3 628 695 626
3 626 695 693
3 695 786 693
3 1050 1099 1098
3 1397 1487 1445
3 376 385 400
3 385 473 400
3 400 473 503
3 695 739 788
3 695 788 786
3 1053 1099 1048
3 1048 1099 1050
3 1487 1517 1514
3 377 385 335
3 335 385 376
3 743 748 739
3 739 748 788
3 1064 1053 1051
3 1051 1053 1048
3 1517 1553 1514
3 1514 1553 1554
3 314 320 335
3 320 377 335
3 743 785 748
3 1065 1064 1046
3 1046 1064 1051
3 1553 1599 1554
3 1554 1599 1600
3 317 320 319
3 319 320 314
3 743 760 785
3 785 760 789
3 1045 1065 1046
3 1045 1046 1003
3 1599 1641 1600
3 1600 1641 1644
3 318 317 368
3 368 317 319
3 760 806 789
3 806 851 789
3 789 851 850
3 977 976 930
3 977 1045 976
3 976 1045 1003
3 318 368 378
3 378 368 369
3 851 872 894
3 851 894 850
3 850 894 890
3 894 934 930
3 894 930 890
3 934 977 930
3 8 82 7
3 7 82 73
3 73 82 153
3 73 153 131
3 378 369 410
3 410 369 371
3 410 371 445
3 872 896 894
3 896 934 894
3 82 121 153
3 153 121 203
3 445 371 440
3 440 371 347
3 121 150 205
3 121 205 203
3 440 347 443
3 446 440 443
3 150 214 205
3 418 415 382
3 439 446 418
3 418 446 443
3 418 443 415
3 239 232 214
3 214 232 205
3 418 382 422
3 422 382 383
3 422 439 418
3 239 279 232
3 232 279 281
3 279 425 281
3 281 425 355
3 425 424 355
3 355 424 422
3 355 422 383
3 31 33 41
3 41 33 44
3 1674 1634 1672
3 94 41 44
3 1674 1618 1634
3 41 94 81
3 111 81 167
3 167 81 94
3 1493 1494 1533
3 1457 1494 1493
3 302 288 438
3 438 288 366
3 500 438 450
3 1427 1384 1457
3 500 450 548
3 548 450 549
3 548 549 601
3 1346 1301 1384
3 601 549 602
3 601 602 656
3 656 602 654
3 1203 1097 1204
3 1203 1204 1257
3 1257 1204 1254
3 1257 1254 1301
3 656 654 784
3 1097 832 833
3 1097 833 870
3 1108 1116 1112
3 1116 1174 1112
3 1112 1174 1175
3 1174 1222 1175
3 1175 1222 1223
3 566 626 564
3 564 626 621
3 621 626 693
3 1098 1116 1058
3 1058 1116 1108
3 1222 1270 1273
3 1270 1311 1273
3 1273 1311 1315
3 1311 1354 1315
3 1315 1354 1359
3 1354 1398 1400
3 1398 1445 1400
3 400 467 398
3 398 467 469
3 467 516 469
3 469 516 519
3 516 566 519
3 519 566 564
3 693 786 740
3 1050 1098 1058
3 1354 1400 1359
3 1400 1445 1446
3 1445 1487 1446
3 1446 1487 1477
3 376 400 331
3 331 400 398
3 331 398 328
3 1487 1514 1477
3 1477 1514 1502
3 335 256 186
3 256 335 331
3 256 331 328
3 335 376 331
3 788 748 803
3 1051 1048 1044
3 1514 1554 1502
3 1502 1554 1564
3 335 186 314
3 314 186 189
3 748 785 804
3 748 804 803
3 1046 1051 1044
3 1554 1600 1564
3 1564 1600 1601
3 314 189 223
3 319 314 223
3 785 789 804
3 789 848 804
3 1002 1003 1017
3 1003 1046 1017
3 1600 1644 1601
3 1601 1644 1646
3 263 223 195
3 319 223 263
3 319 263 368
3 789 850 848
3 848 850 890
3 848 890 889
3 890 930 889
3 889 930 929
3 930 976 975
3 930 975 929
3 976 1003 975
3 975 1003 1002
3 71 130 128
3 130 198 128
3 263 195 265
3 263 265 368
3 368 265 369
3 7 73 11
3 11 73 71
3 73 131 71
3 71 131 130
3 131 153 130
3 130 153 202
3 130 202 198
3 202 267 198
3 198 267 265
3 265 267 369
3 369 267 344
3 371 369 344
3 153 203 202
3 202 203 267
3 267 203 270
3 267 270 344
3 344 270 347
3 347 371 344
3 203 272 270
3 270 272 347
3 347 272 350
3 443 347 350
3 443 350 414
3 205 275 203
3 203 275 272
3 272 275 350
3 350 275 382
3 382 415 414
3 382 414 350
3 415 443 414
3 232 277 205
3 205 277 275
3 275 277 382
3 382 277 383
3 232 281 277
3 281 355 277
3 277 355 383
3 33 32 44
3 1634 1625 1672
3 94 44 95
3 1618 1619 1634
3 1634 1619 1625
3 1582 1583 1618
3 1618 1583 1619
3 167 94 95
3 1582 1563 1583
3 167 95 168
3 1533 1527 1563
3 167 168 288
3 288 168 287
3 1494 1480 1527
3 1494 1527 1533
3 288 363 366
3 1457 1385 1494
3 1494 1385 1480
3 366 363 438
3 450 438 496
3 1384 1385 1457
3 450 496 549
3 549 496 545
3 549 545 602
3 1254 1255 1301
3 1301 1255 1299
3 1301 1299 1384
3 1384 1299 1385
3 1204 1202 1254
3 1254 1202 1255
3 784 654 782
3 784 782 832
3 832 782 833
3 870 998 1097
3 1097 998 1094
3 1108 1112 1107
3 519 564 515
3 515 564 559
3 564 621 559
3 559 621 618
3 621 693 618
3 618 693 690
3 693 740 690
3 690 740 755
3 755 796 690
3 1058 1108 1107
3 1058 1107 1047
3 1222 1273 1223
3 1223 1273 1274
3 1273 1315 1274
3 1274 1315 1313
3 1315 1359 1313
3 1313 1359 1358
3 328 398 325
3 325 398 394
3 398 469 394
3 394 469 466
3 469 519 466
3 466 519 515
3 740 786 755
3 755 786 798
3 755 798 796
3 1050 1058 1013
3 1013 1058 1011
3 1011 1058 1047
3 1359 1400 1358
3 1358 1400 1401
3 1400 1446 1401
3 1401 1446 1465
3 1446 1477 1465
3 253 328 325
3 788 801 786
3 786 801 798
3 798 801 844
3 968 1013 1011
3 1048 1050 1013
3 1477 1502 1465
3 1465 1502 1503
3 186 182 151
3 186 256 253
3 186 253 182
3 256 328 253
3 788 803 801
3 801 803 844
3 844 803 846
3 884 926 924
3 884 924 883
3 924 926 968
3 968 926 970
3 968 970 1013
3 1013 970 1044
3 1044 1048 1013
3 1502 1564 1503
3 1503 1564 1555
3 120 189 186
3 120 186 151
3 803 804 846
3 846 804 847
3 847 886 884
3 884 886 926
3 970 926 972
3 970 972 1044
3 1044 972 1015
3 1046 1044 1015
3 1601 1578 1564
3 1564 1578 1555
3 126 120 103
3 120 126 189
3 189 126 193
3 223 189 193
3 804 848 847
3 847 848 886
3 886 848 889
3 886 889 926
3 926 889 929
3 926 929 972
3 972 929 975
3 1002 1017 975
3 975 1017 1015
3 975 1015 972
3 1017 1046 1015
3 1578 1601 1622
3 1601 1646 1622
3 63 128 126
3 63 126 103
3 126 128 193
3 193 128 195
3 195 223 193
3 1622 1646 1649
3 4 71 63
3 4 63 1
3 71 128 63
3 128 198 195
3 265 195 198
3 11 71 4
3 1669 1667 1666
3 1672 1640 1669
3 1669 1640 1667
3 32 30 44
3 44 30 28
3 44 28 60
3 1625 1624 1672
3 1672 1624 1640
3 95 44 68
3 68 44 60
3 1619 1596 1625
3 1625 1596 1624
3 1619 1583 1596
3 1563 1551 1583
3 1527 1515 1563
3 1563 1515 1551
3 1480 1472 1527
3 1527 1472 1515
3 288 287 363
3 363 287 311
3 1480 1425 1472
3 1385 1383 1425
3 1385 1425 1480
3 363 311 438
3 438 311 496
3 1385 1343 1383
3 602 545 598
3 1255 1298 1299
3 1299 1298 1343
3 1299 1343 1385
3 602 598 654
3 654 598 745
3 1097 1093 1204
3 1204 1093 1202
3 1202 1201 1255
3 1255 1201 1298
3 654 745 782
3 782 745 833
3 833 745 830
3 833 830 870
3 1094 998 1093
3 1094 1093 1097
3 618 617 555
3 618 690 617
3 617 690 686
3 690 752 686
3 1107 1112 1056
3 1056 1112 1113
3 1112 1175 1113
3 1113 1175 1114
3 515 559 462
3 462 559 555
3 559 618 555
3 690 796 752
3 752 796 793
3 793 796 840
3 793 840 838
3 840 878 838
3 838 878 875
3 875 878 963
3 878 965 963
3 965 1010 963
3 963 1010 1007
3 1010 1047 1056
3 1010 1056 1007
3 1047 1107 1056
3 1114 1175 1177
3 1175 1223 1177
3 1223 1274 1271
3 1274 1313 1271
3 1271 1313 1314
3 1313 1358 1314
3 1314 1358 1356
3 297 325 322
3 325 394 322
3 322 394 390
3 394 466 390
3 390 466 462
3 466 515 462
3 798 843 796
3 796 843 840
3 840 843 878
3 878 843 880
3 878 880 883
3 878 883 965
3 965 1011 1010
3 1011 1047 1010
3 1358 1401 1356
3 1356 1401 1405
3 1401 1465 1405
3 1405 1465 1466
3 180 253 297
3 253 325 297
3 798 844 843
3 843 844 880
3 880 844 883
3 924 968 883
3 883 968 965
3 968 1011 965
3 1465 1503 1466
3 1466 1503 1504
3 151 182 156
3 156 182 180
3 182 253 180
3 846 884 883
3 846 883 844
3 1555 1548 1503
3 1503 1548 1504
3 120 151 113
3 113 151 156
3 847 884 846
3 1555 1578 1548
3 1548 1578 1575
3 103 120 96
3 96 120 113
3 1578 1622 1575
3 1575 1622 1603
3 63 103 54
3 54 103 96
3 1622 1649 1603
3 1603 1649 1651
3 1603 1651 1626
3 1 63 5
3 5 63 54
3 5 54 36
3 1651 1653 1626
3 1626 1653 1631
3 5 36 13
3 13 36 14
3 1653 1654 1631
3 25 22 34
3 28 25 34
3 60 28 34
3 1624 1615 1640
3 68 60 110
3 1596 1589 1624
3 1624 1589 1615
3 95 68 110
3 1583 1589 1596
3 95 110 211
3 1551 1521 1589
3 1551 1589 1583
3 168 95 211
3 1551 1515 1459
3 1551 1459 1521
3 168 211 287
3 287 211 286
3 1472 1459 1515
3 287 286 311
3 311 286 316
3 1425 1429 1472
3 1472 1429 1459
3 311 316 434
3 1383 1380 1425
3 1425 1380 1429
3 311 434 496
3 496 434 495
3 496 495 545
3 1383 1343 1341
3 1383 1341 1380
3 598 545 596
3 1298 1200 1341
3 1298 1341 1343
3 598 596 652
3 598 652 745
3 745 652 727
3 745 727 868
3 1202 1093 1092
3 1202 1092 1148
3 1202 1148 1201
3 1201 1148 1200
3 1201 1200 1298
3 830 745 868
3 830 868 870
3 870 868 953
3 870 953 998
3 555 617 554
3 554 617 687
3 617 686 687
3 686 752 687
3 687 752 749
3 752 791 749
3 835 875 873
3 873 875 916
3 875 959 916
3 916 959 958
3 958 959 1005
3 959 1056 1005
3 1005 1056 1114
3 1056 1113 1114
3 462 509 388
3 462 555 509
3 509 555 554
3 752 793 791
3 793 838 791
3 791 838 835
3 838 875 835
3 875 963 959
3 963 1007 959
3 1007 1056 959
3 1177 1223 1226
3 1223 1271 1226
3 1271 1314 1226
3 1226 1314 1316
3 1314 1356 1316
3 1316 1356 1355
3 297 322 298
3 298 322 323
3 322 390 323
3 323 390 388
3 390 462 388
3 1356 1405 1355
3 1355 1405 1402
3 1405 1466 1402
3 1402 1466 1460
3 180 297 227
3 227 297 298
3 1466 1504 1460
3 1460 1504 1506
3 156 180 227
3 1548 1506 1504
3 113 156 114
3 1506 1548 1566
3 1548 1575 1566
3 96 113 64
3 64 113 114
3 1603 1585 1575
3 1575 1585 1566
3 54 96 64
3 1585 1603 1621
3 1603 1626 1621
3 36 54 42
3 42 54 64
3 1631 1621 1626
3 14 36 39
3 39 36 42
3 1631 1654 1621
3 1621 1654 1656
3 16 14 39
3 18 16 47
3 18 47 20
3 20 47 52
3 1661 1663 1629
3 22 20 34
3 34 20 52
3 1667 1607 1664
3 1664 1607 1629
3 1664 1629 1663
3 80 34 52
3 1640 1594 1667
3 1667 1594 1607
3 60 34 80
3 60 80 91
3 1640 1615 1594
3 110 60 91
3 1589 1594 1615
3 211 110 210
3 1589 1521 1511
3 286 211 210
3 316 286 361
3 1429 1379 1459
3 316 361 434
3 1380 1340 1379
3 1429 1380 1379
3 495 434 493
3 495 493 545
3 1341 1340 1380
3 545 493 596
3 596 493 594
3 596 594 651
3 596 651 652
3 652 651 724
3 1200 1199 1341
3 727 652 724
3 727 724 779
3 727 779 868
3 868 779 867
3 868 867 953
3 953 867 952
3 953 952 998
3 998 952 1041
3 1093 998 1041
3 1093 1041 1092
3 554 687 619
3 619 687 688
3 687 749 688
3 749 791 750
3 791 835 750
3 750 835 836
3 835 873 836
3 836 873 874
3 873 916 874
3 874 916 917
3 916 958 917
3 958 1005 917
3 917 1005 1004
3 1005 1114 1004
3 1004 1114 1054
3 1054 1114 1115
3 389 388 458
3 388 509 458
3 458 509 510
3 509 554 510
3 510 554 556
3 554 619 556
3 749 750 688
3 1114 1177 1115
3 1115 1177 1178
3 1177 1226 1178
3 1178 1226 1228
3 1228 1226 1318
3 1226 1316 1318
3 298 323 304
3 304 323 389
3 323 388 389
3 1316 1355 1318
3 1402 1460 1408
3 227 298 241
3 241 298 304
3 1460 1474 1408
3 1506 1474 1460
3 156 227 187
3 187 227 241
3 1474 1506 1513
3 114 156 187
3 114 187 169
3 1506 1566 1513
3 1513 1566 1538
3 64 114 115
3 114 169 115
3 1585 1571 1566
3 1566 1571 1538
3 64 115 105
3 1621 1579 1585
3 1585 1579 1571
3 42 64 67
3 64 105 67
3 1579 1621 1593
3 39 42 67
3 1656 1609 1621
3 1621 1609 1593
3 16 39 57
3 1659 1611 1656
3 1656 1611 1609
3 47 16 65
3 65 16 57
3 1661 1612 1659
3 1659 1612 1611
3 52 47 90
3 90 47 65
3 1629 1606 1661
3 1661 1606 1612
3 52 90 79
3 1629 1607 1606
3 80 52 79
3 1594 1581 1607
3 91 80 109
3 149 91 109
3 1589 1547 1594
3 1594 1547 1581
3 91 149 110
3 110 149 209
3 1511 1547 1589
3 210 110 209
3 210 209 284
3 210 284 286
3 286 284 360
3 1459 1428 1521
3 286 360 361
3 361 360 432
3 1379 1428 1459
3 361 432 434
3 434 432 493
3 1341 1199 1340
3 1200 1146 1199
3 779 724 827
3 779 827 867
3 867 827 865
3 867 865 914
3 867 914 952
3 1041 952 1039
3 1041 1039 1092
3 1092 1039 1089
3 1092 1089 1148
3 1148 1089 1146
3 1148 1146 1200
3 619 688 689
3 751 750 790
3 750 836 790
3 790 836 837
3 836 874 837
3 874 917 837
3 837 917 918
3 918 917 960
3 917 1004 960
3 960 1004 1006
3 1004 1054 1006
3 1006 1054 1055
3 1054 1115 1055
3 389 458 463
3 458 510 463
3 463 510 517
3 510 556 517
3 517 556 562
3 556 619 562
3 562 619 620
3 620 619 689
3 688 750 689
3 689 750 751
3 918 960 961
3 960 1006 961
3 1115 1178 1228
3 1115 1228 1055
3 304 389 326
3 326 389 372
3 372 389 463
3 1228 1318 1276
3 1318 1321 1276
3 1318 1355 1321
3 1321 1355 1322
3 1355 1402 1322
3 1322 1402 1408
3 1322 1408 1365
3 241 304 326
3 1408 1474 1475
3 187 241 238
3 241 326 238
3 1474 1513 1475
3 169 187 190
3 190 187 238
3 1513 1512 1475
3 1538 1512 1513
3 115 169 136
3 136 169 190
3 1512 1538 1571
3 105 115 136
3 1579 1565 1571
3 67 105 88
3 1593 1573 1579
3 1579 1573 1565
3 39 67 83
3 67 88 83
3 1573 1593 1609
3 57 39 83
3 1609 1611 1573
3 1573 1611 1590
3 65 57 83
3 65 83 84
3 1611 1612 1590
3 1590 1612 1591
3 65 84 90
3 1606 1580 1612
3 1612 1580 1591
3 79 90 101
3 1607 1580 1606
3 80 79 133
3 133 79 101
3 1581 1540 1607
3 1607 1540 1580
3 109 80 133
3 109 133 147
3 1581 1546 1540
3 149 109 147
3 149 147 209
3 1547 1525 1546
3 1547 1546 1581
3 1511 1492 1547
3 1547 1492 1525
3 209 244 284
3 1521 1464 1511
3 1511 1464 1492
3 1428 1424 1464
3 1428 1464 1521
3 1428 1350 1424
3 432 360 375
3 432 375 491
3 1379 1338 1428
3 1428 1338 1350
3 493 432 491
3 493 491 592
3 1340 1251 1338
3 1340 1338 1379
3 493 592 594
3 594 592 651
3 1199 1198 1251
3 1199 1251 1340
3 724 651 723
3 724 723 827
3 827 723 825
3 1039 997 1089
3 1146 1089 997
3 1199 1146 1198
3 865 827 825
3 865 825 914
3 952 914 950
3 952 950 1039
3 1039 950 997
3 751 790 792
3 790 837 792
3 517 562 565
3 562 620 565
3 565 620 623
3 620 689 623
3 623 689 691
3 689 751 691
3 691 751 753
3 753 751 792
3 837 839 792
3 837 876 839
3 837 918 876
3 876 918 919
3 918 961 919
3 919 961 962
3 961 1006 962
3 962 1006 1008
3 1006 1055 1008
3 1008 1055 1057
3 1055 1119 1057
3 1055 1228 1119
3 1119 1228 1179
3 372 463 386
3 386 463 465
3 463 517 465
3 465 517 520
3 520 517 565
3 1179 1228 1229
3 1228 1276 1229
3 1276 1321 1322
3 326 372 332
3 332 372 386
3 1365 1408 1410
3 1408 1475 1410
3 238 326 303
3 303 326 332
3 1410 1475 1441
3 190 238 260
3 260 238 303
3 1475 1512 1441
3 1441 1512 1481
3 136 190 171
3 171 190 260
3 1571 1509 1512
3 1512 1509 1481
3 105 136 171
3 1571 1565 1509
3 1509 1565 1483
3 88 105 116
3 105 171 116
3 1565 1558 1483
3 1573 1558 1565
3 83 88 116
3 1590 1560 1573
3 1573 1560 1558
3 84 83 118
3 118 83 116
3 1591 1530 1590
3 1590 1530 1560
3 90 84 118
3 1580 1550 1591
3 1591 1550 1530
3 101 90 118
3 101 118 178
3 101 178 133
3 133 178 147
3 1580 1540 1550
3 1546 1522 1540
3 209 147 218
3 1546 1525 1522
3 244 209 218
3 1492 1423 1525
3 284 244 360
3 360 244 359
3 1492 1464 1423
3 1464 1424 1423
3 360 359 375
3 375 359 490
3 375 490 491
3 592 491 490
3 592 490 591
3 1251 1250 1294
3 1251 1294 1338
3 592 591 651
3 651 591 721
3 1198 1144 1197
3 1198 1197 1251
3 1251 1197 1250
3 651 721 723
3 723 721 777
3 723 777 825
3 825 777 822
3 825 822 912
3 997 950 995
3 997 995 1144
3 997 1144 1146
3 1146 1144 1198
3 825 912 914
3 914 912 950
3 565 623 625
3 623 691 625
3 691 753 754
3 753 792 754
3 754 792 794
3 792 839 794
3 839 876 877
3 876 919 877
3 877 919 920
3 919 962 920
3 920 962 964
3 962 1008 964
3 964 1008 1009
3 1008 1057 1009
3 1009 1057 1059
3 1057 1119 1059
3 1059 1119 1120
3 1119 1179 1120
3 386 465 471
3 465 520 471
3 471 520 524
3 520 565 524
3 565 625 524
3 1179 1229 1230
3 1179 1230 1120
3 1229 1276 1230
3 1230 1276 1280
3 1276 1322 1280
3 332 386 402
3 386 471 402
3 1280 1322 1324
3 1322 1365 1367
3 1322 1367 1324
3 1365 1410 1367
3 303 332 334
3 334 332 402
3 1367 1410 1413
3 1441 1413 1410
3 260 303 334
3 260 334 261
3 1413 1441 1450
3 1441 1481 1450
3 171 260 222
3 222 260 261
3 1509 1452 1481
3 1481 1452 1450
3 171 222 196
3 1452 1509 1483
3 116 171 196
3 116 196 199
3 1558 1496 1483
3 1496 1558 1510
3 116 199 165
3 1558 1560 1510
3 1510 1560 1528
3 118 116 157
3 157 116 165
3 1560 1530 1528
3 118 157 159
3 1530 1550 1520
3 178 118 159
3 1540 1462 1550
3 1550 1462 1520
3 147 178 243
3 1540 1522 1462
3 218 147 243
3 1525 1454 1522
3 244 218 243
3 244 243 358
3 1423 1454 1525
3 359 244 358
3 1424 1336 1423
3 490 359 358
3 1350 1336 1424
3 1338 1294 1350
3 1350 1294 1336
3 490 507 591
3 591 507 645
3 591 645 719
3 1197 1144 1085
3 1197 1085 1249
3 1250 1197 1249
3 1250 1249 1294
3 721 591 719
3 721 719 777
3 822 777 864
3 912 993 995
3 995 993 1037
3 1144 995 1037
3 1144 1037 1085
3 822 864 912
3 950 912 995
3 625 691 692
3 691 754 692
3 692 754 756
3 754 794 756
3 756 794 795
3 794 839 795
3 795 839 841
3 839 877 841
3 841 877 879
3 877 920 879
3 471 524 525
3 525 524 627
3 525 627 551
3 524 625 627
3 625 692 627
3 879 920 921
3 921 920 964
3 921 964 1009
3 1009 1059 1121
3 1009 1121 966
3 1059 1120 1121
3 1121 1120 1180
3 1120 1230 1180
3 402 471 476
3 471 525 476
3 476 525 551
3 1230 1281 1180
3 1230 1280 1281
3 1280 1324 1326
3 1324 1367 1326
3 334 402 405
3 402 476 405
3 405 476 380
3 1280 1326 1281
3 1326 1367 1369
3 1367 1413 1369
3 261 334 336
3 336 334 405
3 336 405 380
3 1369 1413 1387
3 1413 1450 1387
3 222 261 262
3 262 261 336
3 262 336 339
3 336 380 339
3 1387 1450 1452
3 1387 1452 1415
3 196 222 262
3 196 262 233
3 262 339 233
3 1452 1453 1415
3 1415 1453 1416
3 1483 1453 1452
3 196 233 199
3 1496 1468 1483
3 1483 1468 1453
3 1468 1496 1510
3 1468 1510 1469
3 165 199 217
3 199 233 217
3 1510 1528 1469
3 1469 1528 1485
3 157 165 225
3 225 165 217
3 1530 1485 1528
3 159 157 225
3 1520 1486 1530
3 1530 1486 1485
3 1520 1479 1486
3 159 278 178
3 178 278 282
3 1462 1479 1520
3 243 178 282
3 243 282 292
3 1454 1393 1462
3 1522 1454 1462
3 243 292 310
3 358 243 310
3 358 310 429
3 1423 1349 1375
3 1423 1375 1454
3 358 429 447
3 1336 1349 1423
3 358 447 490
3 490 447 507
3 507 447 540
3 507 540 589
3 1294 1247 1292
3 1336 1294 1292
3 1336 1292 1349
3 507 589 645
3 1294 1249 1247
3 719 645 717
3 719 717 775
3 719 775 777
3 777 775 820
3 1085 1037 1035
3 1085 1035 1249
3 1249 1035 1247
3 777 820 864
3 864 820 862
3 864 862 912
3 912 862 910
3 912 910 993
3 993 910 948
3 993 948 992
3 993 992 1037
3 551 627 630
3 627 692 630
3 630 692 694
3 692 756 694
3 756 795 694
3 694 795 797
3 795 841 842
3 795 842 797
3 841 879 842
3 879 921 842
3 842 921 922
3 921 1009 922
3 922 1009 966
3 966 1121 1012
3 1012 1121 1060
3 1060 1121 1122
3 1121 1180 1122
3 476 551 528
3 528 551 572
3 551 630 572
3 1180 1281 1232
3 1180 1232 1122
3 380 476 504
3 504 476 528
3 1232 1281 1282
3 1281 1326 1282
3 1282 1326 1305
3 1326 1369 1305
3 406 380 504
3 406 504 442
3 1305 1369 1387
3 1305 1387 1329
3 339 380 406
3 339 406 384
3 406 442 384
3 1387 1371 1329
3 1387 1415 1371
3 233 339 342
3 339 384 342
3 1415 1416 1371
3 1416 1453 1468
3 1416 1468 1417
3 233 342 268
3 268 342 345
3 1468 1469 1417
3 1417 1469 1418
3 217 233 268
3 268 345 217
3 217 345 348
3 1469 1485 1418
3 217 348 225
3 159 225 352
3 278 159 352
3 278 352 354
3 278 354 282
3 282 354 309
3 1479 1462 1421
3 292 282 309
3 292 309 357
3 1462 1393 1421
3 310 292 357
3 310 357 427
3 1454 1375 1393
3 429 310 427
3 429 427 485
3 447 429 485
3 447 485 538
3 1349 1290 1375
3 540 447 538
3 1292 1244 1290
3 1349 1292 1290
3 589 643 645
3 645 643 715
3 1140 1195 1247
3 1247 1195 1244
3 1292 1247 1244
3 717 645 715
3 717 715 775
3 775 715 773
3 1035 1084 1140
3 1035 1140 1247
3 820 775 773
3 820 773 862
3 910 862 908
3 910 908 948
3 948 908 945
3 948 945 992
3 992 945 990
3 992 990 1037
3 1037 990 1035
3 630 694 696
3 696 694 757
3 694 797 757
3 757 797 799
3 797 842 799
3 799 842 881
3 842 922 881
3 572 630 697
3 630 696 697
3 696 757 697
3 757 799 800
3 799 881 800
3 922 966 967
3 922 967 881
3 966 1012 967
3 967 1012 1061
3 1012 1060 1061
3 1060 1122 1061
3 1061 1122 1124
3 1122 1181 1124
3 1122 1232 1181
3 504 528 531
3 528 572 531
3 531 572 574
3 572 697 574
3 1181 1232 1235
3 1232 1282 1284
3 1232 1284 1235
3 1282 1305 1284
3 442 504 479
3 479 504 531
3 531 574 575
3 1284 1305 1329
3 1284 1329 1345
3 384 442 479
3 384 479 480
3 1329 1371 1345
3 342 384 408
3 384 480 408
3 1371 1388 1345
3 1416 1388 1371
3 342 408 409
3 1388 1416 1417
3 342 409 345
3 345 409 379
3 1417 1418 1388
3 1388 1418 1419
3 345 379 348
3 1485 1419 1418
3 225 348 352
3 1419 1420 1372
3 1372 1420 1373
3 1486 1420 1485
3 1485 1420 1419
3 1479 1420 1486
3 309 354 426
3 1421 1373 1420
3 1479 1421 1420
3 357 309 426
3 1421 1393 1335
3 427 357 426
3 426 484 427
3 427 484 485
3 485 484 537
3 1393 1375 1335
3 1375 1289 1335
3 538 485 537
3 538 537 586
3 1375 1290 1289
3 540 538 589
3 589 538 586
3 589 586 643
3 1244 1195 1194
3 1244 1194 1290
3 715 643 714
3 715 714 817
3 1084 1034 1083
3 1140 1084 1083
3 1140 1083 1195
3 773 715 817
3 773 817 818
3 773 818 862
3 862 818 907
3 862 907 908
3 907 944 908
3 908 944 945
3 990 945 944
3 990 944 1035
3 1035 944 1034
3 1035 1034 1084
3 697 757 758
3 757 800 758
3 758 800 845
3 800 881 845
3 845 881 882
3 882 881 923
3 881 967 923
3 923 967 969
3 967 1061 969
3 969 1061 1014
3 1014 1061 1062
3 1061 1124 1062
3 574 697 631
3 631 697 698
3 697 758 698
3 698 758 759
3 759 758 802
3 758 845 802
3 802 845 882
3 1014 1062 1063
3 1062 1124 1063
3 1063 1124 1125
3 1124 1181 1182
3 1124 1182 1125
3 1181 1235 1182
3 575 574 631
3 631 698 699
3 698 759 699
3 1182 1183 1125
3 1182 1235 1183
3 1235 1284 1183
3 480 479 531
3 480 531 506
3 531 575 506
3 1183 1284 1236
3 1284 1345 1236
3 408 480 481
3 480 506 481
3 1236 1345 1237
3 1237 1345 1330
3 1388 1330 1345
3 409 408 482
3 482 408 481
3 379 409 482
3 379 482 454
3 1330 1388 1331
3 348 379 412
3 379 454 412
3 1331 1388 1372
3 1419 1372 1388
3 352 348 412
3 412 454 535
3 1331 1372 1332
3 419 352 412
3 412 535 419
3 1372 1373 1332
3 354 352 419
3 483 419 535
3 426 354 419
3 419 483 426
3 483 535 536
3 1421 1334 1333
3 1421 1333 1373
3 484 426 483
3 483 536 484
3 1335 1288 1334
3 1421 1335 1334
3 537 484 536
3 536 585 537
3 537 585 642
3 1193 1243 1289
3 1289 1243 1288
3 1335 1289 1288
3 586 537 643
3 643 537 642
3 642 712 643
3 643 712 713
3 1082 1139 1194
3 1194 1139 1193
3 1290 1194 1193
3 1290 1193 1289
3 714 643 713
3 714 713 772
3 714 772 817
3 817 772 816
3 817 816 861
3 906 861 905
3 906 905 989
3 989 905 988
3 989 988 1033
3 1033 988 1032
3 1033 1032 1083
3 1083 1032 1082
3 1195 1083 1082
3 1195 1082 1194
3 818 817 907
3 907 817 861
3 907 861 906
3 907 906 944
3 944 906 989
3 944 989 1034
3 1034 989 1033
3 1034 1033 1083
3 802 882 885
3 882 923 885
3 885 923 925
3 923 969 971
3 923 971 925
3 969 1014 971
3 575 631 699
3 759 802 699
3 699 802 834
3 802 885 834
3 925 971 973
3 971 1014 973
3 973 1014 1016
3 1014 1063 1016
3 1063 1125 1126
3 1125 1183 1126
3 506 575 576
3 576 575 699
3 576 699 632
3 632 699 700
3 700 699 761
3 699 834 761
3 1016 1063 1067
3 1063 1126 1067
3 1183 1236 1126
3 481 506 578
3 506 576 578
3 576 632 578
3 578 632 608
3 1126 1236 1185
3 1185 1236 1237
3 482 481 533
3 533 481 578
3 533 578 580
3 578 608 580
3 1237 1238 1185
3 1330 1238 1237
3 454 482 533
3 533 580 581
3 1238 1331 1239
3 1330 1331 1238
3 454 533 534
3 533 581 534
3 1331 1286 1239
3 1239 1286 1240
3 1331 1332 1286
3 454 534 535
3 1286 1287 1242
3 1286 1332 1287
3 1243 1242 1333
3 1333 1242 1287
3 1333 1287 1332
3 1333 1332 1373
3 535 584 536
3 536 584 641
3 1334 1243 1333
3 585 536 641
3 585 641 735
3 1138 1137 1192
3 1192 1137 1136
3 1192 1136 1243
3 1288 1243 1334
3 585 735 642
3 642 735 711
3 711 735 771
3 1138 1081 1137
3 1138 1192 1193
3 1243 1193 1192
3 712 642 711
3 711 771 712
3 712 771 815
3 1031 987 1030
3 1030 1081 1031
3 1031 1081 1138
3 1193 1139 1138
3 713 712 772
3 772 712 815
3 772 815 816
3 815 860 816
3 816 860 905
3 905 860 904
3 905 904 988
3 988 904 943
3 943 987 988
3 987 1031 988
3 988 1031 1032
3 1082 1032 1031
3 1082 1031 1138
3 1082 1138 1139
3 861 816 905
3 834 885 887
3 885 925 887
3 887 925 927
3 925 973 927
3 834 887 871
3 871 887 888
3 887 927 888
3 888 927 928
3 927 973 928
3 928 973 974
3 973 1016 999
3 973 999 974
3 1016 1067 999
3 632 700 608
3 608 700 702
3 700 761 702
3 702 761 762
3 762 761 834
3 762 834 787
3 787 834 805
3 834 871 805
3 805 871 849
3 999 1067 1018
3 1018 1067 1070
3 1067 1126 1070
3 1070 1126 1101
3 1126 1185 1101
3 580 608 634
3 608 702 634
3 634 702 670
3 1101 1185 1128
3 1128 1185 1187
3 1128 1187 1158
3 1185 1238 1187
3 581 580 634
3 581 634 616
3 616 634 637
3 634 670 637
3 1187 1190 1158
3 1158 1190 1160
3 1187 1238 1190
3 1190 1238 1239
3 534 581 582
3 581 616 582
3 582 616 638
3 582 638 659
3 1190 1170 1160
3 1190 1239 1170
3 1170 1239 1240
3 535 534 583
3 583 534 582
3 582 659 583
3 583 659 639
3 639 659 676
3 1170 1240 1161
3 1161 1240 1241
3 1286 1241 1240
3 639 535 583
3 639 676 640
3 640 676 708
3 1161 1241 1156
3 1156 1241 1242
3 1286 1242 1241
3 535 639 584
3 584 639 640
3 640 708 709
3 708 734 709
3 709 734 741
3 1135 1104 1134
3 1135 1134 1191
3 1191 1134 1156
3 1243 1191 1242
3 1242 1191 1156
3 641 584 640
3 640 709 641
3 641 709 710
3 709 741 710
3 710 741 744
3 1052 1079 1136
3 1136 1079 1104
3 1136 1104 1135
3 1136 1135 1191
3 1136 1191 1243
3 735 641 710
3 735 710 744
3 735 744 770
3 770 744 769
3 770 769 814
3 770 814 859
3 859 814 858
3 859 858 902
3 902 858 901
3 902 901 941
3 1080 1000 1029
3 1080 1029 1052
3 1137 1080 1052
3 1137 1052 1136
3 735 770 771
3 771 770 859
3 859 902 903
3 902 941 903
3 903 941 942
3 941 957 942
3 942 957 986
3 1030 942 986
3 1030 986 1080
3 1080 986 1000
3 1030 1080 1081
3 1081 1080 1137
3 771 859 815
3 815 859 860
3 859 903 860
3 860 903 904
3 943 904 903
3 943 903 942
3 943 942 987
3 987 942 1030
